<mxfile host="Electron" modified="2024-05-29T03:47:42.114Z" agent="Mozilla/5.0 (Windows NT 10.0; Win64; x64) AppleWebKit/537.36 (KHTML, like Gecko) draw.io/24.2.5 Chrome/120.0.6099.109 Electron/28.1.0 Safari/537.36" etag="AdMlaWboT0LFIiujMTKY" version="24.2.5" type="device" pages="11">
  <diagram id="WnKO3ckclN2WGPnmLzkz" name="會員註冊">
    <mxGraphModel dx="3780" dy="827" grid="1" gridSize="10" guides="1" tooltips="1" connect="1" arrows="1" fold="1" page="1" pageScale="1" pageWidth="827" pageHeight="1169" math="0" shadow="0">
      <root>
        <mxCell id="0" />
        <mxCell id="1" parent="0" />
        <mxCell id="T_0cmB6HRf8mZuiyFgic-2" style="edgeStyle=orthogonalEdgeStyle;rounded=0;orthogonalLoop=1;jettySize=auto;html=1;entryX=0.5;entryY=0;entryDx=0;entryDy=0;" parent="1" source="O3wQcwfNfCebxiGPTtpG-2" target="T_0cmB6HRf8mZuiyFgic-1" edge="1">
          <mxGeometry relative="1" as="geometry" />
        </mxCell>
        <mxCell id="O3wQcwfNfCebxiGPTtpG-2" value="進入登入頁面" style="rounded=1;whiteSpace=wrap;html=1;" parent="1" vertex="1">
          <mxGeometry x="-3152" y="119.5" width="120" height="31" as="geometry" />
        </mxCell>
        <mxCell id="O3wQcwfNfCebxiGPTtpG-3" style="edgeStyle=orthogonalEdgeStyle;rounded=0;orthogonalLoop=1;jettySize=auto;html=1;exitX=0.5;exitY=1;exitDx=0;exitDy=0;" parent="1" source="O3wQcwfNfCebxiGPTtpG-4" target="O3wQcwfNfCebxiGPTtpG-2" edge="1">
          <mxGeometry relative="1" as="geometry" />
        </mxCell>
        <mxCell id="O3wQcwfNfCebxiGPTtpG-4" value="" style="ellipse;whiteSpace=wrap;html=1;aspect=fixed;fillColor=#000000;" parent="1" vertex="1">
          <mxGeometry x="-3102" y="80" width="20" height="20" as="geometry" />
        </mxCell>
        <mxCell id="O3wQcwfNfCebxiGPTtpG-5" value="" style="ellipse;html=1;shape=endState;fillColor=#000000;strokeColor=#000000;" parent="1" vertex="1">
          <mxGeometry x="-3107" y="489.5" width="30" height="30" as="geometry" />
        </mxCell>
        <mxCell id="O3wQcwfNfCebxiGPTtpG-6" style="edgeStyle=orthogonalEdgeStyle;rounded=0;orthogonalLoop=1;jettySize=auto;html=1;" parent="1" source="O3wQcwfNfCebxiGPTtpG-7" target="O3wQcwfNfCebxiGPTtpG-8" edge="1">
          <mxGeometry relative="1" as="geometry" />
        </mxCell>
        <mxCell id="O3wQcwfNfCebxiGPTtpG-7" value="輸入會員資料" style="rounded=1;whiteSpace=wrap;html=1;" parent="1" vertex="1">
          <mxGeometry x="-3152" y="240" width="120" height="31" as="geometry" />
        </mxCell>
        <mxCell id="O3wQcwfNfCebxiGPTtpG-8" value="驗證會員資料" style="rounded=1;whiteSpace=wrap;html=1;" parent="1" vertex="1">
          <mxGeometry x="-3152" y="306.5" width="120" height="31" as="geometry" />
        </mxCell>
        <mxCell id="LfX10HkLsAj7zYozh3bj-6" style="edgeStyle=orthogonalEdgeStyle;rounded=0;orthogonalLoop=1;jettySize=auto;html=1;entryX=0.5;entryY=0;entryDx=0;entryDy=0;" parent="1" source="O3wQcwfNfCebxiGPTtpG-16" target="O3wQcwfNfCebxiGPTtpG-36" edge="1">
          <mxGeometry relative="1" as="geometry" />
        </mxCell>
        <mxCell id="O3wQcwfNfCebxiGPTtpG-16" value="提示註冊成功" style="rounded=1;whiteSpace=wrap;html=1;" parent="1" vertex="1">
          <mxGeometry x="-3000" y="362" width="120" height="31" as="geometry" />
        </mxCell>
        <mxCell id="O3wQcwfNfCebxiGPTtpG-17" value="" style="edgeStyle=orthogonalEdgeStyle;rounded=0;orthogonalLoop=1;jettySize=auto;html=1;" parent="1" edge="1">
          <mxGeometry relative="1" as="geometry">
            <mxPoint x="-3092" y="339.5" as="sourcePoint" />
            <mxPoint x="-3092" y="368.5" as="targetPoint" />
          </mxGeometry>
        </mxCell>
        <mxCell id="O3wQcwfNfCebxiGPTtpG-18" style="edgeStyle=orthogonalEdgeStyle;rounded=0;orthogonalLoop=1;jettySize=auto;html=1;entryX=0.5;entryY=0;entryDx=0;entryDy=0;" parent="1" source="O3wQcwfNfCebxiGPTtpG-22" target="O3wQcwfNfCebxiGPTtpG-24" edge="1">
          <mxGeometry relative="1" as="geometry">
            <mxPoint x="-3092" y="435.5" as="targetPoint" />
          </mxGeometry>
        </mxCell>
        <mxCell id="O3wQcwfNfCebxiGPTtpG-19" value="[失敗]" style="edgeLabel;html=1;align=center;verticalAlign=middle;resizable=0;points=[];" parent="O3wQcwfNfCebxiGPTtpG-18" vertex="1" connectable="0">
          <mxGeometry x="-0.3925" y="1" relative="1" as="geometry">
            <mxPoint x="-1" y="4" as="offset" />
          </mxGeometry>
        </mxCell>
        <mxCell id="LfX10HkLsAj7zYozh3bj-7" value="" style="edgeStyle=orthogonalEdgeStyle;rounded=0;orthogonalLoop=1;jettySize=auto;html=1;" parent="1" source="O3wQcwfNfCebxiGPTtpG-22" target="O3wQcwfNfCebxiGPTtpG-16" edge="1">
          <mxGeometry relative="1" as="geometry" />
        </mxCell>
        <mxCell id="LfX10HkLsAj7zYozh3bj-8" value="[成功]" style="edgeLabel;html=1;align=center;verticalAlign=middle;resizable=0;points=[];" parent="LfX10HkLsAj7zYozh3bj-7" vertex="1" connectable="0">
          <mxGeometry x="-0.3489" y="-4" relative="1" as="geometry">
            <mxPoint y="-4" as="offset" />
          </mxGeometry>
        </mxCell>
        <mxCell id="O3wQcwfNfCebxiGPTtpG-22" value="" style="rhombus;whiteSpace=wrap;html=1;" parent="1" vertex="1">
          <mxGeometry x="-3107" y="368.5" width="30" height="18" as="geometry" />
        </mxCell>
        <mxCell id="O3wQcwfNfCebxiGPTtpG-23" style="edgeStyle=orthogonalEdgeStyle;rounded=0;orthogonalLoop=1;jettySize=auto;html=1;entryX=0.5;entryY=0;entryDx=0;entryDy=0;" parent="1" source="O3wQcwfNfCebxiGPTtpG-24" target="O3wQcwfNfCebxiGPTtpG-5" edge="1">
          <mxGeometry relative="1" as="geometry" />
        </mxCell>
        <mxCell id="O3wQcwfNfCebxiGPTtpG-24" value="提示資料驗證失敗" style="rounded=1;whiteSpace=wrap;html=1;" parent="1" vertex="1">
          <mxGeometry x="-3152" y="429.5" width="120" height="31" as="geometry" />
        </mxCell>
        <mxCell id="LfX10HkLsAj7zYozh3bj-5" style="edgeStyle=orthogonalEdgeStyle;rounded=0;orthogonalLoop=1;jettySize=auto;html=1;entryX=1;entryY=0.5;entryDx=0;entryDy=0;" parent="1" source="O3wQcwfNfCebxiGPTtpG-36" target="O3wQcwfNfCebxiGPTtpG-5" edge="1">
          <mxGeometry relative="1" as="geometry">
            <Array as="points">
              <mxPoint x="-2940" y="504" />
            </Array>
          </mxGeometry>
        </mxCell>
        <mxCell id="O3wQcwfNfCebxiGPTtpG-36" value="返回登入畫面" style="rounded=1;whiteSpace=wrap;html=1;" parent="1" vertex="1">
          <mxGeometry x="-3000" y="429.5" width="120" height="31" as="geometry" />
        </mxCell>
        <mxCell id="T_0cmB6HRf8mZuiyFgic-3" style="edgeStyle=orthogonalEdgeStyle;rounded=0;orthogonalLoop=1;jettySize=auto;html=1;entryX=0.5;entryY=0;entryDx=0;entryDy=0;" parent="1" source="T_0cmB6HRf8mZuiyFgic-1" target="O3wQcwfNfCebxiGPTtpG-7" edge="1">
          <mxGeometry relative="1" as="geometry" />
        </mxCell>
        <mxCell id="T_0cmB6HRf8mZuiyFgic-1" value="點擊註冊帳號" style="rounded=1;whiteSpace=wrap;html=1;" parent="1" vertex="1">
          <mxGeometry x="-3152" y="180" width="120" height="31" as="geometry" />
        </mxCell>
        <mxCell id="T_0cmB6HRf8mZuiyFgic-5" value="&lt;div&gt;&lt;span style=&quot;background-color: initial;&quot;&gt;信箱(帳號)&lt;/span&gt;&lt;br&gt;&lt;/div&gt;&lt;div&gt;使用者名稱&lt;br&gt;&lt;/div&gt;&lt;div&gt;密碼&lt;/div&gt;" style="shape=note2;boundedLbl=1;whiteSpace=wrap;html=1;size=18;verticalAlign=top;align=center;" parent="1" vertex="1">
          <mxGeometry x="-3000" y="215.5" width="120" height="80" as="geometry" />
        </mxCell>
        <mxCell id="LfX10HkLsAj7zYozh3bj-3" style="edgeStyle=orthogonalEdgeStyle;rounded=0;orthogonalLoop=1;jettySize=auto;html=1;entryX=0;entryY=0.5;entryDx=0;entryDy=0;entryPerimeter=0;endArrow=none;endFill=0;dashed=1;" parent="1" source="O3wQcwfNfCebxiGPTtpG-7" target="T_0cmB6HRf8mZuiyFgic-5" edge="1">
          <mxGeometry relative="1" as="geometry" />
        </mxCell>
      </root>
    </mxGraphModel>
  </diagram>
  <diagram id="dV6Uhw-CSLUs23nYhRFd" name="會員登入">
    <mxGraphModel dx="4742" dy="836" grid="1" gridSize="10" guides="1" tooltips="1" connect="1" arrows="1" fold="1" page="1" pageScale="1" pageWidth="827" pageHeight="1169" math="0" shadow="0">
      <root>
        <mxCell id="0" />
        <mxCell id="1" parent="0" />
        <mxCell id="RSCFkDjZRtY4eeu6XcuZ-1" value="" style="edgeStyle=orthogonalEdgeStyle;rounded=0;orthogonalLoop=1;jettySize=auto;html=1;" parent="1" source="RSCFkDjZRtY4eeu6XcuZ-2" edge="1">
          <mxGeometry relative="1" as="geometry">
            <mxPoint x="-3092" y="179.5" as="targetPoint" />
          </mxGeometry>
        </mxCell>
        <mxCell id="RSCFkDjZRtY4eeu6XcuZ-2" value="進入登入頁面" style="rounded=1;whiteSpace=wrap;html=1;" parent="1" vertex="1">
          <mxGeometry x="-3152" y="119.5" width="120" height="31" as="geometry" />
        </mxCell>
        <mxCell id="RSCFkDjZRtY4eeu6XcuZ-3" style="edgeStyle=orthogonalEdgeStyle;rounded=0;orthogonalLoop=1;jettySize=auto;html=1;exitX=0.5;exitY=1;exitDx=0;exitDy=0;" parent="1" source="RSCFkDjZRtY4eeu6XcuZ-4" target="RSCFkDjZRtY4eeu6XcuZ-2" edge="1">
          <mxGeometry relative="1" as="geometry" />
        </mxCell>
        <mxCell id="RSCFkDjZRtY4eeu6XcuZ-4" value="" style="ellipse;whiteSpace=wrap;html=1;aspect=fixed;fillColor=#000000;" parent="1" vertex="1">
          <mxGeometry x="-3102" y="80" width="20" height="20" as="geometry" />
        </mxCell>
        <mxCell id="RSCFkDjZRtY4eeu6XcuZ-7" value="" style="ellipse;html=1;shape=endState;fillColor=#000000;strokeColor=#000000;" parent="1" vertex="1">
          <mxGeometry x="-3107" y="489.5" width="30" height="30" as="geometry" />
        </mxCell>
        <mxCell id="RSCFkDjZRtY4eeu6XcuZ-8" style="edgeStyle=orthogonalEdgeStyle;rounded=0;orthogonalLoop=1;jettySize=auto;html=1;" parent="1" source="RSCFkDjZRtY4eeu6XcuZ-9" target="RSCFkDjZRtY4eeu6XcuZ-11" edge="1">
          <mxGeometry relative="1" as="geometry" />
        </mxCell>
        <mxCell id="RSCFkDjZRtY4eeu6XcuZ-9" value="輸入註冊時的帳號" style="rounded=1;whiteSpace=wrap;html=1;" parent="1" vertex="1">
          <mxGeometry x="-3152" y="246.5" width="120" height="31" as="geometry" />
        </mxCell>
        <mxCell id="RSCFkDjZRtY4eeu6XcuZ-11" value="驗證身份" style="rounded=1;whiteSpace=wrap;html=1;" parent="1" vertex="1">
          <mxGeometry x="-3152" y="306.5" width="120" height="31" as="geometry" />
        </mxCell>
        <mxCell id="RSCFkDjZRtY4eeu6XcuZ-12" style="edgeStyle=orthogonalEdgeStyle;rounded=0;orthogonalLoop=1;jettySize=auto;html=1;" parent="1" source="RSCFkDjZRtY4eeu6XcuZ-18" edge="1">
          <mxGeometry relative="1" as="geometry">
            <mxPoint x="-3092" y="246.5" as="targetPoint" />
          </mxGeometry>
        </mxCell>
        <mxCell id="RSCFkDjZRtY4eeu6XcuZ-13" value="選擇忘記密碼" style="edgeLabel;html=1;align=center;verticalAlign=middle;resizable=0;points=[];" parent="RSCFkDjZRtY4eeu6XcuZ-12" vertex="1" connectable="0">
          <mxGeometry x="-0.3925" y="1" relative="1" as="geometry">
            <mxPoint x="-1" y="4" as="offset" />
          </mxGeometry>
        </mxCell>
        <mxCell id="RSCFkDjZRtY4eeu6XcuZ-14" style="edgeStyle=orthogonalEdgeStyle;rounded=0;orthogonalLoop=1;jettySize=auto;html=1;entryX=0;entryY=0.5;entryDx=0;entryDy=0;exitX=1;exitY=0.5;exitDx=0;exitDy=0;" parent="1" source="RSCFkDjZRtY4eeu6XcuZ-18" edge="1">
          <mxGeometry relative="1" as="geometry">
            <mxPoint x="-2950" y="188.21" as="targetPoint" />
            <mxPoint x="-3035.8333333333335" y="188.21" as="sourcePoint" />
          </mxGeometry>
        </mxCell>
        <mxCell id="RSCFkDjZRtY4eeu6XcuZ-15" value="選擇登入" style="edgeLabel;html=1;align=center;verticalAlign=middle;resizable=0;points=[];" parent="RSCFkDjZRtY4eeu6XcuZ-14" vertex="1" connectable="0">
          <mxGeometry x="-0.2047" y="-1" relative="1" as="geometry">
            <mxPoint x="-23" y="-1" as="offset" />
          </mxGeometry>
        </mxCell>
        <mxCell id="RSCFkDjZRtY4eeu6XcuZ-18" value="" style="rhombus;whiteSpace=wrap;html=1;" parent="1" vertex="1">
          <mxGeometry x="-3107" y="179.5" width="30" height="18" as="geometry" />
        </mxCell>
        <mxCell id="4wS0NSLLPN4hVm6S5YGc-16" style="edgeStyle=orthogonalEdgeStyle;rounded=0;orthogonalLoop=1;jettySize=auto;html=1;entryX=0.5;entryY=0;entryDx=0;entryDy=0;" parent="1" target="RSCFkDjZRtY4eeu6XcuZ-22" edge="1">
          <mxGeometry relative="1" as="geometry">
            <mxPoint x="-2872" y="188" as="sourcePoint" />
          </mxGeometry>
        </mxCell>
        <mxCell id="RSCFkDjZRtY4eeu6XcuZ-22" value="驗證帳號密碼" style="rounded=1;whiteSpace=wrap;html=1;" parent="1" vertex="1">
          <mxGeometry x="-2832" y="250" width="120" height="31" as="geometry" />
        </mxCell>
        <mxCell id="Ig8-xWM1FqM1KT8apR-F-1" value="" style="edgeStyle=orthogonalEdgeStyle;rounded=0;orthogonalLoop=1;jettySize=auto;html=1;" parent="1" edge="1">
          <mxGeometry relative="1" as="geometry">
            <mxPoint x="-3092" y="339.5" as="sourcePoint" />
            <mxPoint x="-3092" y="368.5" as="targetPoint" />
          </mxGeometry>
        </mxCell>
        <mxCell id="Ig8-xWM1FqM1KT8apR-F-2" style="edgeStyle=orthogonalEdgeStyle;rounded=0;orthogonalLoop=1;jettySize=auto;html=1;entryX=0.5;entryY=0;entryDx=0;entryDy=0;" parent="1" source="Ig8-xWM1FqM1KT8apR-F-4" target="Ig8-xWM1FqM1KT8apR-F-7" edge="1">
          <mxGeometry relative="1" as="geometry">
            <mxPoint x="-3092" y="435.5" as="targetPoint" />
          </mxGeometry>
        </mxCell>
        <mxCell id="Ig8-xWM1FqM1KT8apR-F-3" value="[失敗]" style="edgeLabel;html=1;align=center;verticalAlign=middle;resizable=0;points=[];" parent="Ig8-xWM1FqM1KT8apR-F-2" vertex="1" connectable="0">
          <mxGeometry x="-0.3925" y="1" relative="1" as="geometry">
            <mxPoint x="-1" y="4" as="offset" />
          </mxGeometry>
        </mxCell>
        <mxCell id="iHdX_s8NyQ25vQxeJoRo-8" style="edgeStyle=orthogonalEdgeStyle;rounded=0;orthogonalLoop=1;jettySize=auto;html=1;entryX=0;entryY=0.5;entryDx=0;entryDy=0;" parent="1" source="Ig8-xWM1FqM1KT8apR-F-4" target="4wS0NSLLPN4hVm6S5YGc-1" edge="1">
          <mxGeometry relative="1" as="geometry" />
        </mxCell>
        <mxCell id="iHdX_s8NyQ25vQxeJoRo-9" value="[成功]" style="edgeLabel;html=1;align=center;verticalAlign=middle;resizable=0;points=[];" parent="iHdX_s8NyQ25vQxeJoRo-8" vertex="1" connectable="0">
          <mxGeometry x="-0.6409" y="2" relative="1" as="geometry">
            <mxPoint x="13" y="2" as="offset" />
          </mxGeometry>
        </mxCell>
        <mxCell id="Ig8-xWM1FqM1KT8apR-F-4" value="" style="rhombus;whiteSpace=wrap;html=1;" parent="1" vertex="1">
          <mxGeometry x="-3107" y="368.5" width="30" height="18" as="geometry" />
        </mxCell>
        <mxCell id="Ig8-xWM1FqM1KT8apR-F-9" style="edgeStyle=orthogonalEdgeStyle;rounded=0;orthogonalLoop=1;jettySize=auto;html=1;entryX=0.5;entryY=0;entryDx=0;entryDy=0;" parent="1" source="Ig8-xWM1FqM1KT8apR-F-7" target="RSCFkDjZRtY4eeu6XcuZ-7" edge="1">
          <mxGeometry relative="1" as="geometry" />
        </mxCell>
        <mxCell id="Ig8-xWM1FqM1KT8apR-F-7" value="提示身份驗證失敗" style="rounded=1;whiteSpace=wrap;html=1;" parent="1" vertex="1">
          <mxGeometry x="-3152" y="429.5" width="120" height="31" as="geometry" />
        </mxCell>
        <mxCell id="iHdX_s8NyQ25vQxeJoRo-7" style="edgeStyle=orthogonalEdgeStyle;rounded=0;orthogonalLoop=1;jettySize=auto;html=1;entryX=0;entryY=0.5;entryDx=0;entryDy=0;" parent="1" source="4wS0NSLLPN4hVm6S5YGc-1" target="iHdX_s8NyQ25vQxeJoRo-4" edge="1">
          <mxGeometry relative="1" as="geometry">
            <Array as="points">
              <mxPoint x="-2932" y="320" />
              <mxPoint x="-3010" y="320" />
              <mxPoint x="-3010" y="188" />
            </Array>
          </mxGeometry>
        </mxCell>
        <mxCell id="4wS0NSLLPN4hVm6S5YGc-1" value="重新設定密碼" style="rounded=1;whiteSpace=wrap;html=1;" parent="1" vertex="1">
          <mxGeometry x="-2995" y="362" width="120" height="31" as="geometry" />
        </mxCell>
        <mxCell id="4wS0NSLLPN4hVm6S5YGc-21" value="" style="edgeStyle=orthogonalEdgeStyle;rounded=0;orthogonalLoop=1;jettySize=auto;html=1;exitX=0.5;exitY=1;exitDx=0;exitDy=0;" parent="1" source="RSCFkDjZRtY4eeu6XcuZ-22" edge="1">
          <mxGeometry relative="1" as="geometry">
            <mxPoint x="-2772" y="300" as="sourcePoint" />
            <mxPoint x="-2772" y="329" as="targetPoint" />
          </mxGeometry>
        </mxCell>
        <mxCell id="4wS0NSLLPN4hVm6S5YGc-34" style="edgeStyle=orthogonalEdgeStyle;rounded=0;orthogonalLoop=1;jettySize=auto;html=1;entryX=0.5;entryY=0;entryDx=0;entryDy=0;" parent="1" source="4wS0NSLLPN4hVm6S5YGc-24" target="4wS0NSLLPN4hVm6S5YGc-27" edge="1">
          <mxGeometry relative="1" as="geometry">
            <Array as="points">
              <mxPoint x="-2842" y="337.5" />
            </Array>
          </mxGeometry>
        </mxCell>
        <mxCell id="4wS0NSLLPN4hVm6S5YGc-35" value="[驗證成功]" style="edgeLabel;html=1;align=center;verticalAlign=middle;resizable=0;points=[];" parent="4wS0NSLLPN4hVm6S5YGc-34" vertex="1" connectable="0">
          <mxGeometry x="-0.6708" y="3" relative="1" as="geometry">
            <mxPoint x="-11" y="-12" as="offset" />
          </mxGeometry>
        </mxCell>
        <mxCell id="4wS0NSLLPN4hVm6S5YGc-36" style="edgeStyle=orthogonalEdgeStyle;rounded=0;orthogonalLoop=1;jettySize=auto;html=1;entryX=0.5;entryY=0;entryDx=0;entryDy=0;" parent="1" source="4wS0NSLLPN4hVm6S5YGc-24" target="4wS0NSLLPN4hVm6S5YGc-29" edge="1">
          <mxGeometry relative="1" as="geometry">
            <Array as="points">
              <mxPoint x="-2697" y="337.5" />
            </Array>
          </mxGeometry>
        </mxCell>
        <mxCell id="4wS0NSLLPN4hVm6S5YGc-37" value="[驗證失敗]" style="edgeLabel;html=1;align=center;verticalAlign=middle;resizable=0;points=[];" parent="4wS0NSLLPN4hVm6S5YGc-36" vertex="1" connectable="0">
          <mxGeometry x="-0.4952" y="2" relative="1" as="geometry">
            <mxPoint x="2" y="-7" as="offset" />
          </mxGeometry>
        </mxCell>
        <mxCell id="4wS0NSLLPN4hVm6S5YGc-24" value="" style="rhombus;whiteSpace=wrap;html=1;" parent="1" vertex="1">
          <mxGeometry x="-2787" y="329" width="30" height="18" as="geometry" />
        </mxCell>
        <mxCell id="4wS0NSLLPN4hVm6S5YGc-39" style="edgeStyle=orthogonalEdgeStyle;rounded=0;orthogonalLoop=1;jettySize=auto;html=1;entryX=1;entryY=0.5;entryDx=0;entryDy=0;" parent="1" source="4wS0NSLLPN4hVm6S5YGc-27" target="RSCFkDjZRtY4eeu6XcuZ-7" edge="1">
          <mxGeometry relative="1" as="geometry">
            <Array as="points">
              <mxPoint x="-2842" y="504.5" />
            </Array>
          </mxGeometry>
        </mxCell>
        <mxCell id="4wS0NSLLPN4hVm6S5YGc-27" value="提示登入成功" style="rounded=1;whiteSpace=wrap;html=1;" parent="1" vertex="1">
          <mxGeometry x="-2902" y="415.5" width="120" height="31" as="geometry" />
        </mxCell>
        <mxCell id="4wS0NSLLPN4hVm6S5YGc-40" style="edgeStyle=orthogonalEdgeStyle;rounded=0;orthogonalLoop=1;jettySize=auto;html=1;entryX=1;entryY=0.5;entryDx=0;entryDy=0;" parent="1" source="4wS0NSLLPN4hVm6S5YGc-29" target="RSCFkDjZRtY4eeu6XcuZ-7" edge="1">
          <mxGeometry relative="1" as="geometry">
            <Array as="points">
              <mxPoint x="-2697" y="504.5" />
            </Array>
          </mxGeometry>
        </mxCell>
        <mxCell id="4wS0NSLLPN4hVm6S5YGc-29" value="提示帳密驗證失敗" style="rounded=1;whiteSpace=wrap;html=1;" parent="1" vertex="1">
          <mxGeometry x="-2757" y="415.5" width="120" height="31" as="geometry" />
        </mxCell>
        <mxCell id="iHdX_s8NyQ25vQxeJoRo-10" style="edgeStyle=orthogonalEdgeStyle;rounded=0;orthogonalLoop=1;jettySize=auto;html=1;entryX=0;entryY=0.5;entryDx=0;entryDy=0;" parent="1" source="iHdX_s8NyQ25vQxeJoRo-1" target="RSCFkDjZRtY4eeu6XcuZ-22" edge="1">
          <mxGeometry relative="1" as="geometry" />
        </mxCell>
        <mxCell id="iHdX_s8NyQ25vQxeJoRo-1" value="輸入帳號密碼" style="rounded=1;whiteSpace=wrap;html=1;" parent="1" vertex="1">
          <mxGeometry x="-2992" y="250" width="120" height="31" as="geometry" />
        </mxCell>
        <mxCell id="iHdX_s8NyQ25vQxeJoRo-2" style="edgeStyle=orthogonalEdgeStyle;rounded=0;orthogonalLoop=1;jettySize=auto;html=1;entryX=0;entryY=0.5;entryDx=0;entryDy=0;" parent="1" source="iHdX_s8NyQ25vQxeJoRo-4" edge="1">
          <mxGeometry relative="1" as="geometry">
            <mxPoint x="-2835" y="188" as="targetPoint" />
          </mxGeometry>
        </mxCell>
        <mxCell id="iHdX_s8NyQ25vQxeJoRo-3" value="選擇Google登入" style="edgeLabel;html=1;align=center;verticalAlign=middle;resizable=0;points=[];" parent="iHdX_s8NyQ25vQxeJoRo-2" vertex="1" connectable="0">
          <mxGeometry x="-0.2047" y="-1" relative="1" as="geometry">
            <mxPoint x="17" as="offset" />
          </mxGeometry>
        </mxCell>
        <mxCell id="iHdX_s8NyQ25vQxeJoRo-4" value="" style="rhombus;whiteSpace=wrap;html=1;" parent="1" vertex="1">
          <mxGeometry x="-2950" y="179.5" width="30" height="18" as="geometry" />
        </mxCell>
        <mxCell id="iHdX_s8NyQ25vQxeJoRo-5" style="edgeStyle=orthogonalEdgeStyle;rounded=0;orthogonalLoop=1;jettySize=auto;html=1;" parent="1" source="iHdX_s8NyQ25vQxeJoRo-4" edge="1">
          <mxGeometry relative="1" as="geometry">
            <mxPoint x="-2935" y="246.5" as="targetPoint" />
          </mxGeometry>
        </mxCell>
        <mxCell id="iHdX_s8NyQ25vQxeJoRo-6" value="選擇一般登入" style="edgeLabel;html=1;align=center;verticalAlign=middle;resizable=0;points=[];" parent="iHdX_s8NyQ25vQxeJoRo-5" vertex="1" connectable="0">
          <mxGeometry x="-0.3925" y="1" relative="1" as="geometry">
            <mxPoint x="-1" y="4" as="offset" />
          </mxGeometry>
        </mxCell>
      </root>
    </mxGraphModel>
  </diagram>
  <diagram id="EnDv7Shs5qqBRYnce2N_" name="會員資料管理">
    <mxGraphModel dx="4742" dy="836" grid="1" gridSize="10" guides="1" tooltips="1" connect="1" arrows="1" fold="1" page="1" pageScale="1" pageWidth="827" pageHeight="1169" math="0" shadow="0">
      <root>
        <mxCell id="0" />
        <mxCell id="1" parent="0" />
        <mxCell id="iCnZThAwsrPmOz3MEmfq-1" style="edgeStyle=orthogonalEdgeStyle;rounded=0;orthogonalLoop=1;jettySize=auto;html=1;entryX=0.5;entryY=0;entryDx=0;entryDy=0;" parent="1" source="iCnZThAwsrPmOz3MEmfq-2" target="iCnZThAwsrPmOz3MEmfq-16" edge="1">
          <mxGeometry relative="1" as="geometry" />
        </mxCell>
        <mxCell id="iCnZThAwsrPmOz3MEmfq-2" value="進入會員專區頁面" style="rounded=1;whiteSpace=wrap;html=1;" parent="1" vertex="1">
          <mxGeometry x="-3155" y="119.5" width="120" height="31" as="geometry" />
        </mxCell>
        <mxCell id="iCnZThAwsrPmOz3MEmfq-3" style="edgeStyle=orthogonalEdgeStyle;rounded=0;orthogonalLoop=1;jettySize=auto;html=1;exitX=0.5;exitY=1;exitDx=0;exitDy=0;" parent="1" source="iCnZThAwsrPmOz3MEmfq-4" target="iCnZThAwsrPmOz3MEmfq-2" edge="1">
          <mxGeometry relative="1" as="geometry" />
        </mxCell>
        <mxCell id="iCnZThAwsrPmOz3MEmfq-4" value="" style="ellipse;whiteSpace=wrap;html=1;aspect=fixed;fillColor=#000000;" parent="1" vertex="1">
          <mxGeometry x="-3105" y="80" width="20" height="20" as="geometry" />
        </mxCell>
        <mxCell id="iCnZThAwsrPmOz3MEmfq-5" value="" style="ellipse;html=1;shape=endState;fillColor=#000000;strokeColor=#000000;" parent="1" vertex="1">
          <mxGeometry x="-3035" y="530" width="30" height="30" as="geometry" />
        </mxCell>
        <mxCell id="iCnZThAwsrPmOz3MEmfq-6" value="輸入會員資料" style="rounded=1;whiteSpace=wrap;html=1;" parent="1" vertex="1">
          <mxGeometry x="-3155" y="240" width="120" height="31" as="geometry" />
        </mxCell>
        <mxCell id="iCnZThAwsrPmOz3MEmfq-7" value="" style="edgeStyle=orthogonalEdgeStyle;rounded=0;orthogonalLoop=1;jettySize=auto;html=1;" parent="1" edge="1">
          <mxGeometry relative="1" as="geometry">
            <mxPoint x="-3095" y="271" as="sourcePoint" />
            <mxPoint x="-3095" y="300" as="targetPoint" />
          </mxGeometry>
        </mxCell>
        <mxCell id="iCnZThAwsrPmOz3MEmfq-8" style="edgeStyle=orthogonalEdgeStyle;rounded=0;orthogonalLoop=1;jettySize=auto;html=1;entryX=0.5;entryY=0;entryDx=0;entryDy=0;exitX=0;exitY=0.5;exitDx=0;exitDy=0;" parent="1" source="iCnZThAwsrPmOz3MEmfq-12" target="iCnZThAwsrPmOz3MEmfq-14" edge="1">
          <mxGeometry relative="1" as="geometry">
            <mxPoint x="-3095" y="360.9999999999999" as="targetPoint" />
          </mxGeometry>
        </mxCell>
        <mxCell id="iCnZThAwsrPmOz3MEmfq-9" value="選擇偏好設定" style="edgeLabel;html=1;align=center;verticalAlign=middle;resizable=0;points=[];" parent="iCnZThAwsrPmOz3MEmfq-8" connectable="0" vertex="1">
          <mxGeometry x="-0.3925" y="1" relative="1" as="geometry">
            <mxPoint x="-29" y="16" as="offset" />
          </mxGeometry>
        </mxCell>
        <mxCell id="iCnZThAwsrPmOz3MEmfq-10" style="edgeStyle=orthogonalEdgeStyle;rounded=0;orthogonalLoop=1;jettySize=auto;html=1;entryX=0.5;entryY=0;entryDx=0;entryDy=0;" parent="1" source="iCnZThAwsrPmOz3MEmfq-12" edge="1">
          <mxGeometry relative="1" as="geometry">
            <Array as="points">
              <mxPoint x="-3023" y="309" />
            </Array>
            <mxPoint x="-3023" y="350" as="targetPoint" />
          </mxGeometry>
        </mxCell>
        <mxCell id="iCnZThAwsrPmOz3MEmfq-11" value="選擇資料修改" style="edgeLabel;html=1;align=center;verticalAlign=middle;resizable=0;points=[];" parent="iCnZThAwsrPmOz3MEmfq-10" connectable="0" vertex="1">
          <mxGeometry x="0.5932" y="-1" relative="1" as="geometry">
            <mxPoint x="1" y="-3" as="offset" />
          </mxGeometry>
        </mxCell>
        <mxCell id="iCnZThAwsrPmOz3MEmfq-12" value="" style="rhombus;whiteSpace=wrap;html=1;" parent="1" vertex="1">
          <mxGeometry x="-3110" y="300" width="30" height="18" as="geometry" />
        </mxCell>
        <mxCell id="iCnZThAwsrPmOz3MEmfq-13" style="edgeStyle=orthogonalEdgeStyle;rounded=0;orthogonalLoop=1;jettySize=auto;html=1;entryX=0;entryY=0.5;entryDx=0;entryDy=0;" parent="1" source="iCnZThAwsrPmOz3MEmfq-14" target="iCnZThAwsrPmOz3MEmfq-18" edge="1">
          <mxGeometry relative="1" as="geometry">
            <Array as="points">
              <mxPoint x="-3170" y="486" />
            </Array>
          </mxGeometry>
        </mxCell>
        <mxCell id="iCnZThAwsrPmOz3MEmfq-14" value="修改偏好設定" style="rounded=1;whiteSpace=wrap;html=1;" parent="1" vertex="1">
          <mxGeometry x="-3230" y="350" width="120" height="31" as="geometry" />
        </mxCell>
        <mxCell id="iCnZThAwsrPmOz3MEmfq-15" style="edgeStyle=orthogonalEdgeStyle;rounded=0;orthogonalLoop=1;jettySize=auto;html=1;entryX=0.5;entryY=0;entryDx=0;entryDy=0;" parent="1" source="iCnZThAwsrPmOz3MEmfq-16" target="iCnZThAwsrPmOz3MEmfq-6" edge="1">
          <mxGeometry relative="1" as="geometry" />
        </mxCell>
        <mxCell id="iCnZThAwsrPmOz3MEmfq-16" value="選擇會員資料" style="rounded=1;whiteSpace=wrap;html=1;" parent="1" vertex="1">
          <mxGeometry x="-3155" y="180" width="120" height="31" as="geometry" />
        </mxCell>
        <mxCell id="iCnZThAwsrPmOz3MEmfq-17" style="edgeStyle=orthogonalEdgeStyle;rounded=0;orthogonalLoop=1;jettySize=auto;html=1;entryX=0.5;entryY=0;entryDx=0;entryDy=0;" parent="1" source="iCnZThAwsrPmOz3MEmfq-18" target="iCnZThAwsrPmOz3MEmfq-5" edge="1">
          <mxGeometry relative="1" as="geometry" />
        </mxCell>
        <mxCell id="iCnZThAwsrPmOz3MEmfq-18" value="提示修改成功" style="rounded=1;whiteSpace=wrap;html=1;" parent="1" vertex="1">
          <mxGeometry x="-3080" y="470" width="120" height="31" as="geometry" />
        </mxCell>
        <mxCell id="iCnZThAwsrPmOz3MEmfq-19" value="" style="rhombus;whiteSpace=wrap;html=1;" parent="1" vertex="1">
          <mxGeometry x="-3038" y="350" width="30" height="18" as="geometry" />
        </mxCell>
        <mxCell id="iCnZThAwsrPmOz3MEmfq-20" value="" style="endArrow=classic;html=1;rounded=0;" parent="1" edge="1">
          <mxGeometry width="50" height="50" relative="1" as="geometry">
            <mxPoint x="-3008" y="360" as="sourcePoint" />
            <mxPoint x="-2893" y="360" as="targetPoint" />
          </mxGeometry>
        </mxCell>
        <mxCell id="iCnZThAwsrPmOz3MEmfq-21" value="選擇修改密碼" style="edgeLabel;html=1;align=center;verticalAlign=middle;resizable=0;points=[];" parent="iCnZThAwsrPmOz3MEmfq-20" connectable="0" vertex="1">
          <mxGeometry x="-0.1992" y="-1" relative="1" as="geometry">
            <mxPoint as="offset" />
          </mxGeometry>
        </mxCell>
        <mxCell id="iCnZThAwsrPmOz3MEmfq-22" style="edgeStyle=orthogonalEdgeStyle;rounded=0;orthogonalLoop=1;jettySize=auto;html=1;entryX=1;entryY=0.5;entryDx=0;entryDy=0;" parent="1" source="iCnZThAwsrPmOz3MEmfq-23" target="iCnZThAwsrPmOz3MEmfq-18" edge="1">
          <mxGeometry relative="1" as="geometry">
            <Array as="points">
              <mxPoint x="-2830" y="486" />
            </Array>
          </mxGeometry>
        </mxCell>
        <mxCell id="iCnZThAwsrPmOz3MEmfq-23" value="修改密碼" style="rounded=1;whiteSpace=wrap;html=1;" parent="1" vertex="1">
          <mxGeometry x="-2893" y="343.5" width="120" height="31" as="geometry" />
        </mxCell>
        <mxCell id="iCnZThAwsrPmOz3MEmfq-24" value="" style="endArrow=classic;html=1;rounded=0;exitX=0.5;exitY=1;exitDx=0;exitDy=0;entryX=0.483;entryY=-0.033;entryDx=0;entryDy=0;entryPerimeter=0;" parent="1" source="iCnZThAwsrPmOz3MEmfq-19" target="iCnZThAwsrPmOz3MEmfq-27" edge="1">
          <mxGeometry width="50" height="50" relative="1" as="geometry">
            <mxPoint x="-2973" y="330" as="sourcePoint" />
            <mxPoint x="-3023" y="400" as="targetPoint" />
          </mxGeometry>
        </mxCell>
        <mxCell id="iCnZThAwsrPmOz3MEmfq-25" value="選擇修改個人資料" style="edgeLabel;html=1;align=center;verticalAlign=middle;resizable=0;points=[];" parent="iCnZThAwsrPmOz3MEmfq-24" connectable="0" vertex="1">
          <mxGeometry x="-0.2328" y="1" relative="1" as="geometry">
            <mxPoint as="offset" />
          </mxGeometry>
        </mxCell>
        <mxCell id="iCnZThAwsrPmOz3MEmfq-26" style="edgeStyle=orthogonalEdgeStyle;rounded=0;orthogonalLoop=1;jettySize=auto;html=1;entryX=0.5;entryY=0;entryDx=0;entryDy=0;" parent="1" source="iCnZThAwsrPmOz3MEmfq-27" target="iCnZThAwsrPmOz3MEmfq-18" edge="1">
          <mxGeometry relative="1" as="geometry" />
        </mxCell>
        <mxCell id="iCnZThAwsrPmOz3MEmfq-27" value="修改個人資料" style="rounded=1;whiteSpace=wrap;html=1;" parent="1" vertex="1">
          <mxGeometry x="-3080" y="410" width="120" height="31" as="geometry" />
        </mxCell>
      </root>
    </mxGraphModel>
  </diagram>
  <diagram name="商家條件查詢" id="6uTObBLCZJcAvnYdVuUf">
    <mxGraphModel dx="4702" dy="-130" grid="1" gridSize="10" guides="1" tooltips="1" connect="1" arrows="1" fold="1" page="1" pageScale="1" pageWidth="1169" pageHeight="827" math="0" shadow="0">
      <root>
        <mxCell id="0" />
        <mxCell id="1" parent="0" />
        <mxCell id="JtnD3dbLDAArh6WuN1uB-22" value="" style="edgeStyle=orthogonalEdgeStyle;rounded=0;orthogonalLoop=1;jettySize=auto;html=1;" parent="1" source="JtnD3dbLDAArh6WuN1uB-23" target="JtnD3dbLDAArh6WuN1uB-27" edge="1">
          <mxGeometry relative="1" as="geometry" />
        </mxCell>
        <mxCell id="JtnD3dbLDAArh6WuN1uB-23" value="會員登入" style="rounded=1;whiteSpace=wrap;html=1;" parent="1" vertex="1">
          <mxGeometry x="-3390" y="1030" width="120" height="31" as="geometry" />
        </mxCell>
        <mxCell id="CJYngWBA6s6pRSEYp-SB-3" style="edgeStyle=orthogonalEdgeStyle;rounded=0;orthogonalLoop=1;jettySize=auto;html=1;entryX=0.5;entryY=0;entryDx=0;entryDy=0;" edge="1" parent="1" source="JtnD3dbLDAArh6WuN1uB-25" target="CJYngWBA6s6pRSEYp-SB-1">
          <mxGeometry relative="1" as="geometry" />
        </mxCell>
        <mxCell id="JtnD3dbLDAArh6WuN1uB-25" value="" style="ellipse;whiteSpace=wrap;html=1;aspect=fixed;fillColor=#000000;" parent="1" vertex="1">
          <mxGeometry x="-3340" y="920.5" width="20" height="20" as="geometry" />
        </mxCell>
        <mxCell id="CJYngWBA6s6pRSEYp-SB-5" style="edgeStyle=orthogonalEdgeStyle;rounded=0;orthogonalLoop=1;jettySize=auto;html=1;entryX=0.5;entryY=0;entryDx=0;entryDy=0;" edge="1" parent="1" source="JtnD3dbLDAArh6WuN1uB-27" target="CJYngWBA6s6pRSEYp-SB-4">
          <mxGeometry relative="1" as="geometry" />
        </mxCell>
        <mxCell id="JtnD3dbLDAArh6WuN1uB-27" value="設定查詢條件" style="rounded=1;whiteSpace=wrap;html=1;" parent="1" vertex="1">
          <mxGeometry x="-3390" y="1090" width="120" height="31" as="geometry" />
        </mxCell>
        <mxCell id="JtnD3dbLDAArh6WuN1uB-28" value="" style="ellipse;html=1;shape=endState;fillColor=#000000;strokeColor=#000000;" parent="1" vertex="1">
          <mxGeometry x="-3345" y="1397" width="30" height="30" as="geometry" />
        </mxCell>
        <mxCell id="JtnD3dbLDAArh6WuN1uB-29" style="edgeStyle=orthogonalEdgeStyle;rounded=0;orthogonalLoop=1;jettySize=auto;html=1;" parent="1" source="JtnD3dbLDAArh6WuN1uB-30" target="JtnD3dbLDAArh6WuN1uB-32" edge="1">
          <mxGeometry relative="1" as="geometry" />
        </mxCell>
        <mxCell id="JtnD3dbLDAArh6WuN1uB-30" value="顯示搜尋結果" style="rounded=1;whiteSpace=wrap;html=1;" parent="1" vertex="1">
          <mxGeometry x="-3390" y="1277" width="120" height="31" as="geometry" />
        </mxCell>
        <mxCell id="JtnD3dbLDAArh6WuN1uB-31" style="edgeStyle=orthogonalEdgeStyle;rounded=0;orthogonalLoop=1;jettySize=auto;html=1;entryX=0.5;entryY=0;entryDx=0;entryDy=0;" parent="1" source="JtnD3dbLDAArh6WuN1uB-32" target="JtnD3dbLDAArh6WuN1uB-28" edge="1">
          <mxGeometry relative="1" as="geometry" />
        </mxCell>
        <mxCell id="JtnD3dbLDAArh6WuN1uB-32" value="查詢成功" style="rounded=1;whiteSpace=wrap;html=1;" parent="1" vertex="1">
          <mxGeometry x="-3390" y="1337" width="120" height="31" as="geometry" />
        </mxCell>
        <mxCell id="JtnD3dbLDAArh6WuN1uB-33" style="edgeStyle=orthogonalEdgeStyle;rounded=0;orthogonalLoop=1;jettySize=auto;html=1;" parent="1" source="JtnD3dbLDAArh6WuN1uB-38" edge="1">
          <mxGeometry relative="1" as="geometry">
            <mxPoint x="-3330" y="1277" as="targetPoint" />
          </mxGeometry>
        </mxCell>
        <mxCell id="JtnD3dbLDAArh6WuN1uB-34" value="有符合條件" style="edgeLabel;html=1;align=center;verticalAlign=middle;resizable=0;points=[];" parent="JtnD3dbLDAArh6WuN1uB-33" vertex="1" connectable="0">
          <mxGeometry x="-0.3925" y="1" relative="1" as="geometry">
            <mxPoint x="-1" y="4" as="offset" />
          </mxGeometry>
        </mxCell>
        <mxCell id="JtnD3dbLDAArh6WuN1uB-35" style="edgeStyle=orthogonalEdgeStyle;rounded=0;orthogonalLoop=1;jettySize=auto;html=1;entryX=0.5;entryY=0;entryDx=0;entryDy=0;" parent="1" source="JtnD3dbLDAArh6WuN1uB-38" target="JtnD3dbLDAArh6WuN1uB-40" edge="1">
          <mxGeometry relative="1" as="geometry">
            <mxPoint x="-3230" y="1219" as="targetPoint" />
          </mxGeometry>
        </mxCell>
        <mxCell id="JtnD3dbLDAArh6WuN1uB-36" value="無符合條件" style="edgeLabel;html=1;align=center;verticalAlign=middle;resizable=0;points=[];" parent="JtnD3dbLDAArh6WuN1uB-35" vertex="1" connectable="0">
          <mxGeometry x="-0.2047" y="-1" relative="1" as="geometry">
            <mxPoint x="-40" y="-1" as="offset" />
          </mxGeometry>
        </mxCell>
        <mxCell id="JtnD3dbLDAArh6WuN1uB-38" value="" style="rhombus;whiteSpace=wrap;html=1;" parent="1" vertex="1">
          <mxGeometry x="-3345" y="1210" width="30" height="18" as="geometry" />
        </mxCell>
        <mxCell id="JtnD3dbLDAArh6WuN1uB-39" style="edgeStyle=orthogonalEdgeStyle;rounded=0;orthogonalLoop=1;jettySize=auto;html=1;entryX=0.5;entryY=0;entryDx=0;entryDy=0;" parent="1" source="JtnD3dbLDAArh6WuN1uB-40" target="JtnD3dbLDAArh6WuN1uB-42" edge="1">
          <mxGeometry relative="1" as="geometry" />
        </mxCell>
        <mxCell id="JtnD3dbLDAArh6WuN1uB-40" value="提示查無結果" style="rounded=1;whiteSpace=wrap;html=1;" parent="1" vertex="1">
          <mxGeometry x="-3230" y="1277" width="120" height="31" as="geometry" />
        </mxCell>
        <mxCell id="JtnD3dbLDAArh6WuN1uB-41" style="edgeStyle=orthogonalEdgeStyle;rounded=0;orthogonalLoop=1;jettySize=auto;html=1;entryX=1;entryY=0.5;entryDx=0;entryDy=0;" parent="1" source="JtnD3dbLDAArh6WuN1uB-42" target="JtnD3dbLDAArh6WuN1uB-28" edge="1">
          <mxGeometry relative="1" as="geometry">
            <Array as="points">
              <mxPoint x="-3170" y="1412" />
            </Array>
          </mxGeometry>
        </mxCell>
        <mxCell id="JtnD3dbLDAArh6WuN1uB-42" value="查詢失敗" style="rounded=1;whiteSpace=wrap;html=1;" parent="1" vertex="1">
          <mxGeometry x="-3230" y="1337" width="120" height="31" as="geometry" />
        </mxCell>
        <mxCell id="CJYngWBA6s6pRSEYp-SB-2" style="edgeStyle=orthogonalEdgeStyle;rounded=0;orthogonalLoop=1;jettySize=auto;html=1;entryX=0.5;entryY=0;entryDx=0;entryDy=0;" edge="1" parent="1" source="CJYngWBA6s6pRSEYp-SB-1" target="JtnD3dbLDAArh6WuN1uB-23">
          <mxGeometry relative="1" as="geometry" />
        </mxCell>
        <mxCell id="CJYngWBA6s6pRSEYp-SB-1" value="進入商家查詢頁面" style="rounded=1;whiteSpace=wrap;html=1;" vertex="1" parent="1">
          <mxGeometry x="-3390" y="970" width="120" height="31" as="geometry" />
        </mxCell>
        <mxCell id="CJYngWBA6s6pRSEYp-SB-6" style="edgeStyle=orthogonalEdgeStyle;rounded=0;orthogonalLoop=1;jettySize=auto;html=1;entryX=0.5;entryY=0;entryDx=0;entryDy=0;" edge="1" parent="1" source="CJYngWBA6s6pRSEYp-SB-4" target="JtnD3dbLDAArh6WuN1uB-38">
          <mxGeometry relative="1" as="geometry" />
        </mxCell>
        <mxCell id="CJYngWBA6s6pRSEYp-SB-4" value="商家查詢" style="rounded=1;whiteSpace=wrap;html=1;" vertex="1" parent="1">
          <mxGeometry x="-3390" y="1150" width="120" height="31" as="geometry" />
        </mxCell>
      </root>
    </mxGraphModel>
  </diagram>
  <diagram id="sKJ2Nh4IRr3llRi5XAAf" name="商家資訊檢視">
    <mxGraphModel dx="4742" dy="836" grid="1" gridSize="10" guides="1" tooltips="1" connect="1" arrows="1" fold="1" page="1" pageScale="1" pageWidth="827" pageHeight="1169" math="0" shadow="0">
      <root>
        <mxCell id="0" />
        <mxCell id="1" parent="0" />
        <mxCell id="T6HjZfonpbieuGN18etZ-2" value="取得搜尋結果" style="rounded=1;whiteSpace=wrap;html=1;" parent="1" vertex="1">
          <mxGeometry x="-2970" y="609.5" width="120" height="31" as="geometry" />
        </mxCell>
        <mxCell id="T6HjZfonpbieuGN18etZ-3" style="edgeStyle=orthogonalEdgeStyle;rounded=0;orthogonalLoop=1;jettySize=auto;html=1;exitX=0.5;exitY=1;exitDx=0;exitDy=0;" parent="1" source="T6HjZfonpbieuGN18etZ-4" target="T6HjZfonpbieuGN18etZ-2" edge="1">
          <mxGeometry relative="1" as="geometry" />
        </mxCell>
        <mxCell id="T6HjZfonpbieuGN18etZ-4" value="" style="ellipse;whiteSpace=wrap;html=1;aspect=fixed;fillColor=#000000;" parent="1" vertex="1">
          <mxGeometry x="-2920" y="570" width="20" height="20" as="geometry" />
        </mxCell>
        <mxCell id="T6HjZfonpbieuGN18etZ-5" value="" style="ellipse;html=1;shape=endState;fillColor=#000000;strokeColor=#000000;" parent="1" vertex="1">
          <mxGeometry x="-2925" y="921" width="30" height="30" as="geometry" />
        </mxCell>
        <mxCell id="dQzgQ1h-iRz_JrxlqaRP-2" style="edgeStyle=orthogonalEdgeStyle;rounded=0;orthogonalLoop=1;jettySize=auto;html=1;entryX=0.5;entryY=0;entryDx=0;entryDy=0;" parent="1" source="T6HjZfonpbieuGN18etZ-15" target="dQzgQ1h-iRz_JrxlqaRP-1" edge="1">
          <mxGeometry relative="1" as="geometry" />
        </mxCell>
        <mxCell id="T6HjZfonpbieuGN18etZ-15" value="顯示標記詳細資訊" style="rounded=1;whiteSpace=wrap;html=1;" parent="1" vertex="1">
          <mxGeometry x="-3040" y="720" width="120" height="31" as="geometry" />
        </mxCell>
        <mxCell id="T6HjZfonpbieuGN18etZ-16" style="edgeStyle=orthogonalEdgeStyle;rounded=0;orthogonalLoop=1;jettySize=auto;html=1;entryX=0.5;entryY=0;entryDx=0;entryDy=0;" parent="1" source="T6HjZfonpbieuGN18etZ-17" target="T6HjZfonpbieuGN18etZ-5" edge="1">
          <mxGeometry relative="1" as="geometry" />
        </mxCell>
        <mxCell id="T6HjZfonpbieuGN18etZ-17" value="檢視完畢" style="rounded=1;whiteSpace=wrap;html=1;" parent="1" vertex="1">
          <mxGeometry x="-2970" y="860" width="120" height="31" as="geometry" />
        </mxCell>
        <mxCell id="dQzgQ1h-iRz_JrxlqaRP-4" style="edgeStyle=orthogonalEdgeStyle;rounded=0;orthogonalLoop=1;jettySize=auto;html=1;entryX=0.5;entryY=0;entryDx=0;entryDy=0;" parent="1" source="T6HjZfonpbieuGN18etZ-19" target="dQzgQ1h-iRz_JrxlqaRP-3" edge="1">
          <mxGeometry relative="1" as="geometry" />
        </mxCell>
        <mxCell id="T6HjZfonpbieuGN18etZ-19" value="顯示商家資料頁面" style="rounded=1;whiteSpace=wrap;html=1;" parent="1" vertex="1">
          <mxGeometry x="-2900" y="720" width="120" height="31" as="geometry" />
        </mxCell>
        <mxCell id="KxA8MpKQJganzzL8y3n0-1" value="" style="edgeStyle=orthogonalEdgeStyle;rounded=0;orthogonalLoop=1;jettySize=auto;html=1;exitX=0.5;exitY=1;exitDx=0;exitDy=0;entryX=0.5;entryY=0;entryDx=0;entryDy=0;" parent="1" source="T6HjZfonpbieuGN18etZ-2" target="KxA8MpKQJganzzL8y3n0-6" edge="1">
          <mxGeometry relative="1" as="geometry">
            <mxPoint x="-2910" y="640" as="sourcePoint" />
            <mxPoint x="-2910.5" y="669.5" as="targetPoint" />
          </mxGeometry>
        </mxCell>
        <mxCell id="KxA8MpKQJganzzL8y3n0-2" style="edgeStyle=orthogonalEdgeStyle;rounded=0;orthogonalLoop=1;jettySize=auto;html=1;entryX=0.5;entryY=0;entryDx=0;entryDy=0;exitX=0;exitY=0.5;exitDx=0;exitDy=0;" parent="1" source="KxA8MpKQJganzzL8y3n0-6" target="T6HjZfonpbieuGN18etZ-15" edge="1">
          <mxGeometry relative="1" as="geometry">
            <mxPoint x="-2980" y="760" as="targetPoint" />
            <Array as="points">
              <mxPoint x="-2980" y="680" />
            </Array>
          </mxGeometry>
        </mxCell>
        <mxCell id="KxA8MpKQJganzzL8y3n0-3" value="選擇地圖標記" style="edgeLabel;html=1;align=center;verticalAlign=middle;resizable=0;points=[];" parent="KxA8MpKQJganzzL8y3n0-2" connectable="0" vertex="1">
          <mxGeometry x="-0.3925" y="1" relative="1" as="geometry">
            <mxPoint x="-26" y="16" as="offset" />
          </mxGeometry>
        </mxCell>
        <mxCell id="KxA8MpKQJganzzL8y3n0-4" style="edgeStyle=orthogonalEdgeStyle;rounded=0;orthogonalLoop=1;jettySize=auto;html=1;entryX=0.5;entryY=0;entryDx=0;entryDy=0;" parent="1" source="KxA8MpKQJganzzL8y3n0-6" target="T6HjZfonpbieuGN18etZ-19" edge="1">
          <mxGeometry relative="1" as="geometry">
            <Array as="points">
              <mxPoint x="-2840" y="680" />
            </Array>
            <mxPoint x="-2840" y="760" as="targetPoint" />
          </mxGeometry>
        </mxCell>
        <mxCell id="KxA8MpKQJganzzL8y3n0-5" value="選擇商家列表" style="edgeLabel;html=1;align=center;verticalAlign=middle;resizable=0;points=[];" parent="KxA8MpKQJganzzL8y3n0-4" connectable="0" vertex="1">
          <mxGeometry x="0.5932" y="-1" relative="1" as="geometry">
            <mxPoint x="1" y="-5" as="offset" />
          </mxGeometry>
        </mxCell>
        <mxCell id="KxA8MpKQJganzzL8y3n0-6" value="" style="rhombus;whiteSpace=wrap;html=1;" parent="1" vertex="1">
          <mxGeometry x="-2925" y="670.5" width="30" height="18" as="geometry" />
        </mxCell>
        <mxCell id="Wm2Ui12FFa6b4Pr4hDa8-1" style="edgeStyle=orthogonalEdgeStyle;rounded=0;orthogonalLoop=1;jettySize=auto;html=1;entryX=0.5;entryY=0;entryDx=0;entryDy=0;" parent="1" source="dQzgQ1h-iRz_JrxlqaRP-1" target="T6HjZfonpbieuGN18etZ-17" edge="1">
          <mxGeometry relative="1" as="geometry" />
        </mxCell>
        <mxCell id="dQzgQ1h-iRz_JrxlqaRP-1" value="檢視標記資訊" style="rounded=1;whiteSpace=wrap;html=1;" parent="1" vertex="1">
          <mxGeometry x="-3040" y="780" width="120" height="31" as="geometry" />
        </mxCell>
        <mxCell id="Wm2Ui12FFa6b4Pr4hDa8-2" style="edgeStyle=orthogonalEdgeStyle;rounded=0;orthogonalLoop=1;jettySize=auto;html=1;entryX=0.5;entryY=0;entryDx=0;entryDy=0;" parent="1" source="dQzgQ1h-iRz_JrxlqaRP-3" target="T6HjZfonpbieuGN18etZ-17" edge="1">
          <mxGeometry relative="1" as="geometry" />
        </mxCell>
        <mxCell id="dQzgQ1h-iRz_JrxlqaRP-3" value="檢視商家資訊" style="rounded=1;whiteSpace=wrap;html=1;" parent="1" vertex="1">
          <mxGeometry x="-2900" y="780" width="120" height="31" as="geometry" />
        </mxCell>
      </root>
    </mxGraphModel>
  </diagram>
  <diagram id="Sa-LpJOw0FloM0cVMu33" name="特定商家推薦">
    <mxGraphModel dx="4127" dy="478" grid="1" gridSize="10" guides="1" tooltips="1" connect="1" arrows="1" fold="1" page="1" pageScale="1" pageWidth="827" pageHeight="1169" math="0" shadow="0">
      <root>
        <mxCell id="0" />
        <mxCell id="1" parent="0" />
        <mxCell id="pWxQL1pq6-dTX9jYpr_v-1" value="進入商家查詢頁面" style="rounded=1;whiteSpace=wrap;html=1;" parent="1" vertex="1">
          <mxGeometry x="-2970" y="609.5" width="120" height="31" as="geometry" />
        </mxCell>
        <mxCell id="pWxQL1pq6-dTX9jYpr_v-2" style="edgeStyle=orthogonalEdgeStyle;rounded=0;orthogonalLoop=1;jettySize=auto;html=1;exitX=0.5;exitY=1;exitDx=0;exitDy=0;" parent="1" source="pWxQL1pq6-dTX9jYpr_v-3" target="pWxQL1pq6-dTX9jYpr_v-1" edge="1">
          <mxGeometry relative="1" as="geometry" />
        </mxCell>
        <mxCell id="pWxQL1pq6-dTX9jYpr_v-3" value="" style="ellipse;whiteSpace=wrap;html=1;aspect=fixed;fillColor=#000000;" parent="1" vertex="1">
          <mxGeometry x="-2920" y="570" width="20" height="20" as="geometry" />
        </mxCell>
        <mxCell id="pWxQL1pq6-dTX9jYpr_v-4" value="" style="ellipse;html=1;shape=endState;fillColor=#000000;strokeColor=#000000;" parent="1" vertex="1">
          <mxGeometry x="-2925" y="920" width="30" height="30" as="geometry" />
        </mxCell>
        <mxCell id="yoA_6arzbLBV8d8Z9LbL-1" style="edgeStyle=orthogonalEdgeStyle;rounded=0;orthogonalLoop=1;jettySize=auto;html=1;entryX=0.5;entryY=0;entryDx=0;entryDy=0;" parent="1" source="pWxQL1pq6-dTX9jYpr_v-6" target="pWxQL1pq6-dTX9jYpr_v-8" edge="1">
          <mxGeometry relative="1" as="geometry" />
        </mxCell>
        <mxCell id="pWxQL1pq6-dTX9jYpr_v-6" value="產生偏好商家列表" style="rounded=1;whiteSpace=wrap;html=1;" parent="1" vertex="1">
          <mxGeometry x="-3040" y="720" width="120" height="31" as="geometry" />
        </mxCell>
        <mxCell id="ft-EZ5FcH9rrOCG0xbHr-2" style="edgeStyle=orthogonalEdgeStyle;rounded=0;orthogonalLoop=1;jettySize=auto;html=1;entryX=0.5;entryY=0;entryDx=0;entryDy=0;" parent="1" source="pWxQL1pq6-dTX9jYpr_v-8" target="ft-EZ5FcH9rrOCG0xbHr-1" edge="1">
          <mxGeometry relative="1" as="geometry" />
        </mxCell>
        <mxCell id="pWxQL1pq6-dTX9jYpr_v-8" value="顯示商家列表" style="rounded=1;whiteSpace=wrap;html=1;" parent="1" vertex="1">
          <mxGeometry x="-2970" y="800" width="120" height="31" as="geometry" />
        </mxCell>
        <mxCell id="yoA_6arzbLBV8d8Z9LbL-2" style="edgeStyle=orthogonalEdgeStyle;rounded=0;orthogonalLoop=1;jettySize=auto;html=1;entryX=0.5;entryY=0;entryDx=0;entryDy=0;" parent="1" source="pWxQL1pq6-dTX9jYpr_v-10" target="pWxQL1pq6-dTX9jYpr_v-8" edge="1">
          <mxGeometry relative="1" as="geometry" />
        </mxCell>
        <mxCell id="pWxQL1pq6-dTX9jYpr_v-10" value="產生熱門商家列表" style="rounded=1;whiteSpace=wrap;html=1;" parent="1" vertex="1">
          <mxGeometry x="-2900" y="720" width="120" height="31" as="geometry" />
        </mxCell>
        <mxCell id="pWxQL1pq6-dTX9jYpr_v-11" value="" style="edgeStyle=orthogonalEdgeStyle;rounded=0;orthogonalLoop=1;jettySize=auto;html=1;exitX=0.5;exitY=1;exitDx=0;exitDy=0;entryX=0.5;entryY=0;entryDx=0;entryDy=0;" parent="1" source="pWxQL1pq6-dTX9jYpr_v-1" target="pWxQL1pq6-dTX9jYpr_v-16" edge="1">
          <mxGeometry relative="1" as="geometry">
            <mxPoint x="-2910" y="640" as="sourcePoint" />
            <mxPoint x="-2910.5" y="669.5" as="targetPoint" />
          </mxGeometry>
        </mxCell>
        <mxCell id="pWxQL1pq6-dTX9jYpr_v-12" style="edgeStyle=orthogonalEdgeStyle;rounded=0;orthogonalLoop=1;jettySize=auto;html=1;entryX=0.5;entryY=0;entryDx=0;entryDy=0;exitX=0;exitY=0.5;exitDx=0;exitDy=0;" parent="1" source="pWxQL1pq6-dTX9jYpr_v-16" target="pWxQL1pq6-dTX9jYpr_v-6" edge="1">
          <mxGeometry relative="1" as="geometry">
            <mxPoint x="-2980" y="760" as="targetPoint" />
            <Array as="points">
              <mxPoint x="-2980" y="680" />
            </Array>
          </mxGeometry>
        </mxCell>
        <mxCell id="pWxQL1pq6-dTX9jYpr_v-13" value="[收藏商家數量足夠]" style="edgeLabel;html=1;align=center;verticalAlign=middle;resizable=0;points=[];" parent="pWxQL1pq6-dTX9jYpr_v-12" connectable="0" vertex="1">
          <mxGeometry x="-0.3925" y="1" relative="1" as="geometry">
            <mxPoint x="-26" y="16" as="offset" />
          </mxGeometry>
        </mxCell>
        <mxCell id="pWxQL1pq6-dTX9jYpr_v-14" style="edgeStyle=orthogonalEdgeStyle;rounded=0;orthogonalLoop=1;jettySize=auto;html=1;entryX=0.5;entryY=0;entryDx=0;entryDy=0;" parent="1" source="pWxQL1pq6-dTX9jYpr_v-16" target="pWxQL1pq6-dTX9jYpr_v-10" edge="1">
          <mxGeometry relative="1" as="geometry">
            <Array as="points">
              <mxPoint x="-2840" y="680" />
            </Array>
            <mxPoint x="-2840" y="760" as="targetPoint" />
          </mxGeometry>
        </mxCell>
        <mxCell id="pWxQL1pq6-dTX9jYpr_v-15" value="[收藏商家數量不足]" style="edgeLabel;html=1;align=center;verticalAlign=middle;resizable=0;points=[];" parent="pWxQL1pq6-dTX9jYpr_v-14" connectable="0" vertex="1">
          <mxGeometry x="0.5932" y="-1" relative="1" as="geometry">
            <mxPoint x="1" y="-5" as="offset" />
          </mxGeometry>
        </mxCell>
        <mxCell id="pWxQL1pq6-dTX9jYpr_v-16" value="" style="rhombus;whiteSpace=wrap;html=1;" parent="1" vertex="1">
          <mxGeometry x="-2925" y="670.5" width="30" height="18" as="geometry" />
        </mxCell>
        <mxCell id="ft-EZ5FcH9rrOCG0xbHr-3" style="edgeStyle=orthogonalEdgeStyle;rounded=0;orthogonalLoop=1;jettySize=auto;html=1;entryX=0.5;entryY=0;entryDx=0;entryDy=0;" parent="1" source="ft-EZ5FcH9rrOCG0xbHr-1" target="pWxQL1pq6-dTX9jYpr_v-4" edge="1">
          <mxGeometry relative="1" as="geometry" />
        </mxCell>
        <mxCell id="ft-EZ5FcH9rrOCG0xbHr-1" value="產生成功" style="rounded=1;whiteSpace=wrap;html=1;" parent="1" vertex="1">
          <mxGeometry x="-2970" y="860" width="120" height="31" as="geometry" />
        </mxCell>
      </root>
    </mxGraphModel>
  </diagram>
  <diagram id="z0uBDttqWbKzkIrhBhdC" name="系統管理">
    <mxGraphModel dx="4742" dy="836" grid="1" gridSize="10" guides="1" tooltips="1" connect="1" arrows="1" fold="1" page="1" pageScale="1" pageWidth="827" pageHeight="1169" math="0" shadow="0">
      <root>
        <mxCell id="0" />
        <mxCell id="1" parent="0" />
        <mxCell id="5m6RyhoRVA62zZUf8eUk-1" value="進入管理者登入頁面" style="rounded=1;whiteSpace=wrap;html=1;" parent="1" vertex="1">
          <mxGeometry x="-3290" y="549.5" width="120" height="31" as="geometry" />
        </mxCell>
        <mxCell id="5m6RyhoRVA62zZUf8eUk-2" style="edgeStyle=orthogonalEdgeStyle;rounded=0;orthogonalLoop=1;jettySize=auto;html=1;exitX=0.5;exitY=1;exitDx=0;exitDy=0;" parent="1" source="5m6RyhoRVA62zZUf8eUk-3" target="5m6RyhoRVA62zZUf8eUk-1" edge="1">
          <mxGeometry relative="1" as="geometry" />
        </mxCell>
        <mxCell id="5m6RyhoRVA62zZUf8eUk-3" value="" style="ellipse;whiteSpace=wrap;html=1;aspect=fixed;fillColor=#000000;" parent="1" vertex="1">
          <mxGeometry x="-3240" y="510" width="20" height="20" as="geometry" />
        </mxCell>
        <mxCell id="5m6RyhoRVA62zZUf8eUk-7" style="edgeStyle=orthogonalEdgeStyle;rounded=0;orthogonalLoop=1;jettySize=auto;html=1;entryX=0.5;entryY=0;entryDx=0;entryDy=0;" parent="1" source="5m6RyhoRVA62zZUf8eUk-8" target="5m6RyhoRVA62zZUf8eUk-18" edge="1">
          <mxGeometry relative="1" as="geometry" />
        </mxCell>
        <mxCell id="5m6RyhoRVA62zZUf8eUk-8" value="輸入帳號密碼" style="rounded=1;whiteSpace=wrap;html=1;" parent="1" vertex="1">
          <mxGeometry x="-3290" y="610" width="120" height="31" as="geometry" />
        </mxCell>
        <mxCell id="5m6RyhoRVA62zZUf8eUk-11" value="" style="edgeStyle=orthogonalEdgeStyle;rounded=0;orthogonalLoop=1;jettySize=auto;html=1;exitX=0.5;exitY=1;exitDx=0;exitDy=0;entryX=0.5;entryY=0;entryDx=0;entryDy=0;" parent="1" source="5m6RyhoRVA62zZUf8eUk-1" edge="1">
          <mxGeometry relative="1" as="geometry">
            <mxPoint x="-3230" y="580" as="sourcePoint" />
            <mxPoint x="-3230" y="610.5" as="targetPoint" />
          </mxGeometry>
        </mxCell>
        <mxCell id="5m6RyhoRVA62zZUf8eUk-18" value="驗證帳號密碼" style="rounded=1;whiteSpace=wrap;html=1;" parent="1" vertex="1">
          <mxGeometry x="-3290" y="670" width="120" height="31" as="geometry" />
        </mxCell>
        <mxCell id="yfli1Lwz3RnWFPv7P648-1" style="edgeStyle=orthogonalEdgeStyle;rounded=0;orthogonalLoop=1;jettySize=auto;html=1;entryX=0.5;entryY=0;entryDx=0;entryDy=0;" parent="1" target="yfli1Lwz3RnWFPv7P648-11" edge="1">
          <mxGeometry relative="1" as="geometry">
            <mxPoint x="-3230" y="701" as="sourcePoint" />
          </mxGeometry>
        </mxCell>
        <mxCell id="yfli1Lwz3RnWFPv7P648-2" value="" style="ellipse;html=1;shape=endState;fillColor=#000000;strokeColor=#000000;" parent="1" vertex="1">
          <mxGeometry x="-3245" y="1060" width="30" height="30" as="geometry" />
        </mxCell>
        <mxCell id="ToPpP52mGp4-xrSohyXw-1" style="edgeStyle=orthogonalEdgeStyle;rounded=0;orthogonalLoop=1;jettySize=auto;html=1;entryX=0.5;entryY=0;entryDx=0;entryDy=0;" parent="1" source="yfli1Lwz3RnWFPv7P648-4" target="yfli1Lwz3RnWFPv7P648-2" edge="1">
          <mxGeometry relative="1" as="geometry" />
        </mxCell>
        <mxCell id="yfli1Lwz3RnWFPv7P648-4" value="提示帳密驗證失敗" style="rounded=1;whiteSpace=wrap;html=1;" parent="1" vertex="1">
          <mxGeometry x="-3290" y="790" width="120" height="31" as="geometry" />
        </mxCell>
        <mxCell id="yfli1Lwz3RnWFPv7P648-7" style="edgeStyle=orthogonalEdgeStyle;rounded=0;orthogonalLoop=1;jettySize=auto;html=1;" parent="1" source="yfli1Lwz3RnWFPv7P648-11" edge="1">
          <mxGeometry relative="1" as="geometry">
            <mxPoint x="-3230" y="790" as="targetPoint" />
          </mxGeometry>
        </mxCell>
        <mxCell id="yfli1Lwz3RnWFPv7P648-8" value="[驗證失敗]" style="edgeLabel;html=1;align=center;verticalAlign=middle;resizable=0;points=[];" parent="yfli1Lwz3RnWFPv7P648-7" vertex="1" connectable="0">
          <mxGeometry x="-0.3925" y="1" relative="1" as="geometry">
            <mxPoint x="-1" y="4" as="offset" />
          </mxGeometry>
        </mxCell>
        <mxCell id="yfli1Lwz3RnWFPv7P648-9" style="edgeStyle=orthogonalEdgeStyle;rounded=0;orthogonalLoop=1;jettySize=auto;html=1;entryX=0;entryY=0.5;entryDx=0;entryDy=0;" parent="1" source="yfli1Lwz3RnWFPv7P648-11" target="yfli1Lwz3RnWFPv7P648-13" edge="1">
          <mxGeometry relative="1" as="geometry">
            <mxPoint x="-3130" y="732" as="targetPoint" />
          </mxGeometry>
        </mxCell>
        <mxCell id="yfli1Lwz3RnWFPv7P648-10" value="[驗證成功]" style="edgeLabel;html=1;align=center;verticalAlign=middle;resizable=0;points=[];" parent="yfli1Lwz3RnWFPv7P648-9" vertex="1" connectable="0">
          <mxGeometry x="-0.2047" y="-1" relative="1" as="geometry">
            <mxPoint x="1" y="-1" as="offset" />
          </mxGeometry>
        </mxCell>
        <mxCell id="yfli1Lwz3RnWFPv7P648-11" value="" style="rhombus;whiteSpace=wrap;html=1;" parent="1" vertex="1">
          <mxGeometry x="-3245" y="723" width="30" height="18" as="geometry" />
        </mxCell>
        <mxCell id="yfli1Lwz3RnWFPv7P648-13" value="提示登入成功" style="rounded=1;whiteSpace=wrap;html=1;" parent="1" vertex="1">
          <mxGeometry x="-3130" y="716.5" width="120" height="31" as="geometry" />
        </mxCell>
        <mxCell id="l3PfSW5BEdEUbK31K5AC-1" style="edgeStyle=orthogonalEdgeStyle;rounded=0;orthogonalLoop=1;jettySize=auto;html=1;entryX=0.5;entryY=0;entryDx=0;entryDy=0;" parent="1" target="l3PfSW5BEdEUbK31K5AC-6" edge="1">
          <mxGeometry relative="1" as="geometry">
            <mxPoint x="-3070" y="747.5" as="sourcePoint" />
          </mxGeometry>
        </mxCell>
        <mxCell id="l3PfSW5BEdEUbK31K5AC-2" style="edgeStyle=orthogonalEdgeStyle;rounded=0;orthogonalLoop=1;jettySize=auto;html=1;entryX=0.5;entryY=0;entryDx=0;entryDy=0;" parent="1" source="l3PfSW5BEdEUbK31K5AC-6" target="BavmGr8zWcQQVQnoYLU0-1" edge="1">
          <mxGeometry relative="1" as="geometry">
            <mxPoint x="-3070" y="836.5" as="targetPoint" />
          </mxGeometry>
        </mxCell>
        <mxCell id="l3PfSW5BEdEUbK31K5AC-3" value="選擇建立新管理者帳號" style="edgeLabel;html=1;align=center;verticalAlign=middle;resizable=0;points=[];" parent="l3PfSW5BEdEUbK31K5AC-2" vertex="1" connectable="0">
          <mxGeometry x="-0.3925" y="1" relative="1" as="geometry">
            <mxPoint x="-1" y="4" as="offset" />
          </mxGeometry>
        </mxCell>
        <mxCell id="l3PfSW5BEdEUbK31K5AC-4" style="edgeStyle=orthogonalEdgeStyle;rounded=0;orthogonalLoop=1;jettySize=auto;html=1;entryX=0;entryY=0.5;entryDx=0;entryDy=0;" parent="1" target="6m1N4REu2pVukVB3xU3c-1" edge="1">
          <mxGeometry relative="1" as="geometry">
            <mxPoint x="-2950" y="778.33" as="targetPoint" />
            <mxPoint x="-3055" y="778.33" as="sourcePoint" />
          </mxGeometry>
        </mxCell>
        <mxCell id="l3PfSW5BEdEUbK31K5AC-5" value="選擇資料管理" style="edgeLabel;html=1;align=center;verticalAlign=middle;resizable=0;points=[];" parent="l3PfSW5BEdEUbK31K5AC-4" vertex="1" connectable="0">
          <mxGeometry x="-0.2047" y="-1" relative="1" as="geometry">
            <mxPoint x="-3" y="-1" as="offset" />
          </mxGeometry>
        </mxCell>
        <mxCell id="l3PfSW5BEdEUbK31K5AC-6" value="" style="rhombus;whiteSpace=wrap;html=1;" parent="1" vertex="1">
          <mxGeometry x="-3085" y="769.5" width="30" height="18" as="geometry" />
        </mxCell>
        <mxCell id="VK6fMxJ1mVhJiaAkt6VS-2" style="edgeStyle=orthogonalEdgeStyle;rounded=0;orthogonalLoop=1;jettySize=auto;html=1;entryX=0.5;entryY=0;entryDx=0;entryDy=0;" parent="1" source="BavmGr8zWcQQVQnoYLU0-1" target="VK6fMxJ1mVhJiaAkt6VS-1" edge="1">
          <mxGeometry relative="1" as="geometry" />
        </mxCell>
        <mxCell id="BavmGr8zWcQQVQnoYLU0-1" value="輸入管理者資料" style="rounded=1;whiteSpace=wrap;html=1;" parent="1" vertex="1">
          <mxGeometry x="-3130" y="840" width="120" height="31" as="geometry" />
        </mxCell>
        <mxCell id="McgsChkE2pGmDBggM4tO-2" style="edgeStyle=orthogonalEdgeStyle;rounded=0;orthogonalLoop=1;jettySize=auto;html=1;entryX=0.5;entryY=0;entryDx=0;entryDy=0;" parent="1" source="VK6fMxJ1mVhJiaAkt6VS-1" target="McgsChkE2pGmDBggM4tO-1" edge="1">
          <mxGeometry relative="1" as="geometry" />
        </mxCell>
        <mxCell id="VK6fMxJ1mVhJiaAkt6VS-1" value="驗證管理者資料" style="rounded=1;whiteSpace=wrap;html=1;" parent="1" vertex="1">
          <mxGeometry x="-3130" y="900" width="120" height="31" as="geometry" />
        </mxCell>
        <mxCell id="fcvV-TvTbAnBarLcdRH2-6" style="edgeStyle=orthogonalEdgeStyle;rounded=0;orthogonalLoop=1;jettySize=auto;html=1;entryX=0.5;entryY=1;entryDx=0;entryDy=0;" parent="1" source="NICFw2PxboTtOf9ik9Uo-1" target="fcvV-TvTbAnBarLcdRH2-5" edge="1">
          <mxGeometry relative="1" as="geometry" />
        </mxCell>
        <mxCell id="NICFw2PxboTtOf9ik9Uo-1" value="取得資料庫" style="rounded=1;whiteSpace=wrap;html=1;" parent="1" vertex="1">
          <mxGeometry x="-2980" y="681" width="120" height="31" as="geometry" />
        </mxCell>
        <mxCell id="YOwSKwnAnc0L7HfbXKNC-1" value="&lt;div&gt;&lt;span style=&quot;background-color: initial;&quot;&gt;信箱(帳號)&lt;/span&gt;&lt;br&gt;&lt;/div&gt;&lt;div&gt;使用者名稱&lt;br&gt;&lt;/div&gt;&lt;div&gt;密碼&lt;/div&gt;" style="shape=note2;boundedLbl=1;whiteSpace=wrap;html=1;size=18;verticalAlign=top;align=center;" parent="1" vertex="1">
          <mxGeometry x="-2980" y="815.5" width="120" height="80" as="geometry" />
        </mxCell>
        <mxCell id="YOwSKwnAnc0L7HfbXKNC-2" style="edgeStyle=orthogonalEdgeStyle;rounded=0;orthogonalLoop=1;jettySize=auto;html=1;entryX=0;entryY=0.5;entryDx=0;entryDy=0;entryPerimeter=0;endArrow=none;endFill=0;dashed=1;" parent="1" source="BavmGr8zWcQQVQnoYLU0-1" target="YOwSKwnAnc0L7HfbXKNC-1" edge="1">
          <mxGeometry relative="1" as="geometry" />
        </mxCell>
        <mxCell id="TZ03iR7ghutaPwH3-geZ-24" style="edgeStyle=orthogonalEdgeStyle;rounded=0;orthogonalLoop=1;jettySize=auto;html=1;entryX=0.5;entryY=0;entryDx=0;entryDy=0;" parent="1" source="McgsChkE2pGmDBggM4tO-1" target="TZ03iR7ghutaPwH3-geZ-23" edge="1">
          <mxGeometry relative="1" as="geometry" />
        </mxCell>
        <mxCell id="McgsChkE2pGmDBggM4tO-1" value="建立管理者帳號" style="rounded=1;whiteSpace=wrap;html=1;" parent="1" vertex="1">
          <mxGeometry x="-3130" y="960" width="120" height="31" as="geometry" />
        </mxCell>
        <mxCell id="6m1N4REu2pVukVB3xU3c-2" style="edgeStyle=orthogonalEdgeStyle;rounded=0;orthogonalLoop=1;jettySize=auto;html=1;entryX=0.5;entryY=1;entryDx=0;entryDy=0;" parent="1" source="6m1N4REu2pVukVB3xU3c-1" target="NICFw2PxboTtOf9ik9Uo-1" edge="1">
          <mxGeometry relative="1" as="geometry" />
        </mxCell>
        <mxCell id="fcvV-TvTbAnBarLcdRH2-4" value="選擇手動檢查資料庫" style="edgeLabel;html=1;align=center;verticalAlign=middle;resizable=0;points=[];" parent="6m1N4REu2pVukVB3xU3c-2" vertex="1" connectable="0">
          <mxGeometry x="0.5309" y="1" relative="1" as="geometry">
            <mxPoint x="1" y="23" as="offset" />
          </mxGeometry>
        </mxCell>
        <mxCell id="fcvV-TvTbAnBarLcdRH2-9" style="edgeStyle=orthogonalEdgeStyle;rounded=0;orthogonalLoop=1;jettySize=auto;html=1;entryX=0;entryY=0.5;entryDx=0;entryDy=0;" parent="1" source="6m1N4REu2pVukVB3xU3c-1" target="TZ03iR7ghutaPwH3-geZ-1" edge="1">
          <mxGeometry relative="1" as="geometry">
            <mxPoint x="-2800" y="779" as="targetPoint" />
          </mxGeometry>
        </mxCell>
        <mxCell id="fcvV-TvTbAnBarLcdRH2-10" value="選擇爬蟲管理" style="edgeLabel;html=1;align=center;verticalAlign=middle;resizable=0;points=[];" parent="fcvV-TvTbAnBarLcdRH2-9" vertex="1" connectable="0">
          <mxGeometry x="-0.5158" relative="1" as="geometry">
            <mxPoint x="20" as="offset" />
          </mxGeometry>
        </mxCell>
        <mxCell id="6m1N4REu2pVukVB3xU3c-1" value="" style="rhombus;whiteSpace=wrap;html=1;" parent="1" vertex="1">
          <mxGeometry x="-2935" y="769.5" width="30" height="18" as="geometry" />
        </mxCell>
        <mxCell id="fcvV-TvTbAnBarLcdRH2-8" style="edgeStyle=orthogonalEdgeStyle;rounded=0;orthogonalLoop=1;jettySize=auto;html=1;entryX=0.5;entryY=1;entryDx=0;entryDy=0;" parent="1" source="fcvV-TvTbAnBarLcdRH2-5" target="fcvV-TvTbAnBarLcdRH2-7" edge="1">
          <mxGeometry relative="1" as="geometry" />
        </mxCell>
        <mxCell id="fcvV-TvTbAnBarLcdRH2-5" value="移除不完整的資料" style="rounded=1;whiteSpace=wrap;html=1;" parent="1" vertex="1">
          <mxGeometry x="-2980" y="620" width="120" height="31" as="geometry" />
        </mxCell>
        <mxCell id="fcvV-TvTbAnBarLcdRH2-7" value="重新爬取對應資料" style="rounded=1;whiteSpace=wrap;html=1;" parent="1" vertex="1">
          <mxGeometry x="-2980" y="560" width="120" height="31" as="geometry" />
        </mxCell>
        <mxCell id="TZ03iR7ghutaPwH3-geZ-3" style="edgeStyle=orthogonalEdgeStyle;rounded=0;orthogonalLoop=1;jettySize=auto;html=1;entryX=0.5;entryY=1;entryDx=0;entryDy=0;" parent="1" source="TZ03iR7ghutaPwH3-geZ-1" target="TZ03iR7ghutaPwH3-geZ-2" edge="1">
          <mxGeometry relative="1" as="geometry" />
        </mxCell>
        <mxCell id="TZ03iR7ghutaPwH3-geZ-5" value="選擇手動執行爬蟲程式" style="edgeLabel;html=1;align=center;verticalAlign=middle;resizable=0;points=[];" parent="TZ03iR7ghutaPwH3-geZ-3" vertex="1" connectable="0">
          <mxGeometry x="-0.2549" y="-1" relative="1" as="geometry">
            <mxPoint x="-1" as="offset" />
          </mxGeometry>
        </mxCell>
        <mxCell id="TZ03iR7ghutaPwH3-geZ-10" value="選擇爬蟲排程" style="edgeLabel;html=1;align=center;verticalAlign=middle;resizable=0;points=[];" parent="TZ03iR7ghutaPwH3-geZ-3" vertex="1" connectable="0">
          <mxGeometry x="-0.2549" y="-1" relative="1" as="geometry">
            <mxPoint x="-1" y="52" as="offset" />
          </mxGeometry>
        </mxCell>
        <mxCell id="TZ03iR7ghutaPwH3-geZ-9" style="edgeStyle=orthogonalEdgeStyle;rounded=0;orthogonalLoop=1;jettySize=auto;html=1;entryX=0.5;entryY=0;entryDx=0;entryDy=0;" parent="1" source="TZ03iR7ghutaPwH3-geZ-1" target="TZ03iR7ghutaPwH3-geZ-8" edge="1">
          <mxGeometry relative="1" as="geometry" />
        </mxCell>
        <mxCell id="TZ03iR7ghutaPwH3-geZ-1" value="" style="rhombus;whiteSpace=wrap;html=1;" parent="1" vertex="1">
          <mxGeometry x="-2801" y="769.5" width="30" height="18" as="geometry" />
        </mxCell>
        <mxCell id="TZ03iR7ghutaPwH3-geZ-7" style="edgeStyle=orthogonalEdgeStyle;rounded=0;orthogonalLoop=1;jettySize=auto;html=1;entryX=0.5;entryY=1;entryDx=0;entryDy=0;" parent="1" source="TZ03iR7ghutaPwH3-geZ-2" target="TZ03iR7ghutaPwH3-geZ-6" edge="1">
          <mxGeometry relative="1" as="geometry" />
        </mxCell>
        <mxCell id="TZ03iR7ghutaPwH3-geZ-2" value="設定爬蟲資料" style="rounded=1;whiteSpace=wrap;html=1;" parent="1" vertex="1">
          <mxGeometry x="-2846" y="681.56" width="120" height="31" as="geometry" />
        </mxCell>
        <mxCell id="TZ03iR7ghutaPwH3-geZ-20" style="edgeStyle=orthogonalEdgeStyle;rounded=0;orthogonalLoop=1;jettySize=auto;html=1;entryX=1;entryY=0.5;entryDx=0;entryDy=0;" parent="1" source="TZ03iR7ghutaPwH3-geZ-6" target="TZ03iR7ghutaPwH3-geZ-11" edge="1">
          <mxGeometry relative="1" as="geometry">
            <Array as="points">
              <mxPoint x="-2540" y="636.06" />
              <mxPoint x="-2540" y="976" />
            </Array>
          </mxGeometry>
        </mxCell>
        <mxCell id="TZ03iR7ghutaPwH3-geZ-6" value="執行爬蟲程式" style="rounded=1;whiteSpace=wrap;html=1;" parent="1" vertex="1">
          <mxGeometry x="-2846" y="620.56" width="120" height="31" as="geometry" />
        </mxCell>
        <mxCell id="TZ03iR7ghutaPwH3-geZ-8" value="設定排程資料" style="rounded=1;whiteSpace=wrap;html=1;" parent="1" vertex="1">
          <mxGeometry x="-2846" y="840" width="120" height="31" as="geometry" />
        </mxCell>
        <mxCell id="5K05VLZ34tIm37qvor6T-4" style="edgeStyle=orthogonalEdgeStyle;rounded=0;orthogonalLoop=1;jettySize=auto;html=1;entryX=0.5;entryY=0;entryDx=0;entryDy=0;" parent="1" source="TZ03iR7ghutaPwH3-geZ-11" target="5K05VLZ34tIm37qvor6T-3" edge="1">
          <mxGeometry relative="1" as="geometry" />
        </mxCell>
        <mxCell id="TZ03iR7ghutaPwH3-geZ-11" value="儲存至資料庫" style="rounded=1;whiteSpace=wrap;html=1;" parent="1" vertex="1">
          <mxGeometry x="-2846" y="960" width="120" height="31" as="geometry" />
        </mxCell>
        <mxCell id="TZ03iR7ghutaPwH3-geZ-21" style="edgeStyle=orthogonalEdgeStyle;rounded=0;orthogonalLoop=1;jettySize=auto;html=1;entryX=0.5;entryY=0;entryDx=0;entryDy=0;" parent="1" source="TZ03iR7ghutaPwH3-geZ-13" target="TZ03iR7ghutaPwH3-geZ-11" edge="1">
          <mxGeometry relative="1" as="geometry" />
        </mxCell>
        <mxCell id="TZ03iR7ghutaPwH3-geZ-13" value="定期執行爬蟲程式" style="rounded=1;whiteSpace=wrap;html=1;" parent="1" vertex="1">
          <mxGeometry x="-2846" y="900" width="120" height="31" as="geometry" />
        </mxCell>
        <mxCell id="TZ03iR7ghutaPwH3-geZ-14" style="edgeStyle=orthogonalEdgeStyle;rounded=0;orthogonalLoop=1;jettySize=auto;html=1;entryX=0.5;entryY=0;entryDx=0;entryDy=0;" parent="1" source="TZ03iR7ghutaPwH3-geZ-8" target="TZ03iR7ghutaPwH3-geZ-13" edge="1">
          <mxGeometry relative="1" as="geometry" />
        </mxCell>
        <mxCell id="TZ03iR7ghutaPwH3-geZ-15" value="爬蟲關鍵字清單&lt;div&gt;排程時間&lt;/div&gt;&lt;div&gt;最大嘗試次數&lt;/div&gt;" style="shape=note2;boundedLbl=1;whiteSpace=wrap;html=1;size=18;verticalAlign=top;align=center;" parent="1" vertex="1">
          <mxGeometry x="-2690" y="813.25" width="120" height="84.5" as="geometry" />
        </mxCell>
        <mxCell id="TZ03iR7ghutaPwH3-geZ-16" style="edgeStyle=orthogonalEdgeStyle;rounded=0;orthogonalLoop=1;jettySize=auto;html=1;entryX=0;entryY=0.5;entryDx=0;entryDy=0;entryPerimeter=0;endArrow=none;endFill=0;dashed=1;" parent="1" source="TZ03iR7ghutaPwH3-geZ-8" target="TZ03iR7ghutaPwH3-geZ-15" edge="1">
          <mxGeometry relative="1" as="geometry" />
        </mxCell>
        <mxCell id="TZ03iR7ghutaPwH3-geZ-17" value="爬蟲關鍵字&lt;div&gt;最大嘗試次數&lt;/div&gt;" style="shape=note2;boundedLbl=1;whiteSpace=wrap;html=1;size=18;verticalAlign=top;align=center;" parent="1" vertex="1">
          <mxGeometry x="-2690" y="655.25" width="120" height="83.5" as="geometry" />
        </mxCell>
        <mxCell id="TZ03iR7ghutaPwH3-geZ-19" style="edgeStyle=orthogonalEdgeStyle;rounded=0;orthogonalLoop=1;jettySize=auto;html=1;endArrow=none;endFill=0;dashed=1;" parent="1" source="TZ03iR7ghutaPwH3-geZ-2" target="TZ03iR7ghutaPwH3-geZ-17" edge="1">
          <mxGeometry relative="1" as="geometry" />
        </mxCell>
        <mxCell id="5K05VLZ34tIm37qvor6T-1" style="edgeStyle=orthogonalEdgeStyle;rounded=0;orthogonalLoop=1;jettySize=auto;html=1;entryX=1;entryY=0.5;entryDx=0;entryDy=0;" parent="1" source="TZ03iR7ghutaPwH3-geZ-23" target="yfli1Lwz3RnWFPv7P648-2" edge="1">
          <mxGeometry relative="1" as="geometry">
            <Array as="points">
              <mxPoint x="-3070" y="1075" />
            </Array>
          </mxGeometry>
        </mxCell>
        <mxCell id="TZ03iR7ghutaPwH3-geZ-23" value="建立成功" style="rounded=1;whiteSpace=wrap;html=1;" parent="1" vertex="1">
          <mxGeometry x="-3130" y="1020" width="120" height="31" as="geometry" />
        </mxCell>
        <mxCell id="5K05VLZ34tIm37qvor6T-5" style="edgeStyle=orthogonalEdgeStyle;rounded=0;orthogonalLoop=1;jettySize=auto;html=1;entryX=1;entryY=0.5;entryDx=0;entryDy=0;" parent="1" source="5K05VLZ34tIm37qvor6T-3" target="yfli1Lwz3RnWFPv7P648-2" edge="1">
          <mxGeometry relative="1" as="geometry">
            <Array as="points">
              <mxPoint x="-2786" y="1075" />
            </Array>
          </mxGeometry>
        </mxCell>
        <mxCell id="5K05VLZ34tIm37qvor6T-3" value="爬蟲完成" style="rounded=1;whiteSpace=wrap;html=1;" parent="1" vertex="1">
          <mxGeometry x="-2846" y="1020" width="120" height="31" as="geometry" />
        </mxCell>
      </root>
    </mxGraphModel>
  </diagram>
  <diagram id="I_Mqa81wDR2PYfFcLu8A" name="管理帳號建立">
    <mxGraphModel dx="4742" dy="836" grid="1" gridSize="10" guides="1" tooltips="1" connect="1" arrows="1" fold="1" page="1" pageScale="1" pageWidth="827" pageHeight="1169" math="0" shadow="0">
      <root>
        <mxCell id="0" />
        <mxCell id="1" parent="0" />
        <mxCell id="YTk0UOEclc1TReDVA6bi-1" value="進入管理者登入頁面" style="rounded=1;whiteSpace=wrap;html=1;" parent="1" vertex="1">
          <mxGeometry x="-3280" y="79.5" width="120" height="31" as="geometry" />
        </mxCell>
        <mxCell id="YTk0UOEclc1TReDVA6bi-2" style="edgeStyle=orthogonalEdgeStyle;rounded=0;orthogonalLoop=1;jettySize=auto;html=1;exitX=0.5;exitY=1;exitDx=0;exitDy=0;" parent="1" source="YTk0UOEclc1TReDVA6bi-3" target="YTk0UOEclc1TReDVA6bi-1" edge="1">
          <mxGeometry relative="1" as="geometry" />
        </mxCell>
        <mxCell id="YTk0UOEclc1TReDVA6bi-3" value="" style="ellipse;whiteSpace=wrap;html=1;aspect=fixed;fillColor=#000000;" parent="1" vertex="1">
          <mxGeometry x="-3230" y="40" width="20" height="20" as="geometry" />
        </mxCell>
        <mxCell id="YTk0UOEclc1TReDVA6bi-4" style="edgeStyle=orthogonalEdgeStyle;rounded=0;orthogonalLoop=1;jettySize=auto;html=1;entryX=0.5;entryY=0;entryDx=0;entryDy=0;" parent="1" source="YTk0UOEclc1TReDVA6bi-5" target="YTk0UOEclc1TReDVA6bi-7" edge="1">
          <mxGeometry relative="1" as="geometry" />
        </mxCell>
        <mxCell id="YTk0UOEclc1TReDVA6bi-5" value="輸入帳號密碼" style="rounded=1;whiteSpace=wrap;html=1;" parent="1" vertex="1">
          <mxGeometry x="-3280" y="140" width="120" height="31" as="geometry" />
        </mxCell>
        <mxCell id="YTk0UOEclc1TReDVA6bi-6" value="" style="edgeStyle=orthogonalEdgeStyle;rounded=0;orthogonalLoop=1;jettySize=auto;html=1;exitX=0.5;exitY=1;exitDx=0;exitDy=0;entryX=0.5;entryY=0;entryDx=0;entryDy=0;" parent="1" source="YTk0UOEclc1TReDVA6bi-1" edge="1">
          <mxGeometry relative="1" as="geometry">
            <mxPoint x="-3220" y="110" as="sourcePoint" />
            <mxPoint x="-3220" y="140.5" as="targetPoint" />
          </mxGeometry>
        </mxCell>
        <mxCell id="YTk0UOEclc1TReDVA6bi-7" value="驗證帳號密碼" style="rounded=1;whiteSpace=wrap;html=1;" parent="1" vertex="1">
          <mxGeometry x="-3280" y="200" width="120" height="31" as="geometry" />
        </mxCell>
        <mxCell id="YTk0UOEclc1TReDVA6bi-8" style="edgeStyle=orthogonalEdgeStyle;rounded=0;orthogonalLoop=1;jettySize=auto;html=1;entryX=0.5;entryY=0;entryDx=0;entryDy=0;" parent="1" target="YTk0UOEclc1TReDVA6bi-16" edge="1">
          <mxGeometry relative="1" as="geometry">
            <mxPoint x="-3220" y="231" as="sourcePoint" />
          </mxGeometry>
        </mxCell>
        <mxCell id="YTk0UOEclc1TReDVA6bi-9" value="" style="ellipse;html=1;shape=endState;fillColor=#000000;strokeColor=#000000;" parent="1" vertex="1">
          <mxGeometry x="-3235" y="590" width="30" height="30" as="geometry" />
        </mxCell>
        <mxCell id="YTk0UOEclc1TReDVA6bi-10" style="edgeStyle=orthogonalEdgeStyle;rounded=0;orthogonalLoop=1;jettySize=auto;html=1;entryX=0.5;entryY=0;entryDx=0;entryDy=0;" parent="1" source="YTk0UOEclc1TReDVA6bi-11" target="YTk0UOEclc1TReDVA6bi-9" edge="1">
          <mxGeometry relative="1" as="geometry" />
        </mxCell>
        <mxCell id="YTk0UOEclc1TReDVA6bi-11" value="提示帳密驗證失敗" style="rounded=1;whiteSpace=wrap;html=1;" parent="1" vertex="1">
          <mxGeometry x="-3280" y="320" width="120" height="31" as="geometry" />
        </mxCell>
        <mxCell id="YTk0UOEclc1TReDVA6bi-12" style="edgeStyle=orthogonalEdgeStyle;rounded=0;orthogonalLoop=1;jettySize=auto;html=1;" parent="1" source="YTk0UOEclc1TReDVA6bi-16" edge="1">
          <mxGeometry relative="1" as="geometry">
            <mxPoint x="-3220" y="320" as="targetPoint" />
          </mxGeometry>
        </mxCell>
        <mxCell id="YTk0UOEclc1TReDVA6bi-13" value="[驗證失敗]" style="edgeLabel;html=1;align=center;verticalAlign=middle;resizable=0;points=[];" parent="YTk0UOEclc1TReDVA6bi-12" vertex="1" connectable="0">
          <mxGeometry x="-0.3925" y="1" relative="1" as="geometry">
            <mxPoint x="-1" y="4" as="offset" />
          </mxGeometry>
        </mxCell>
        <mxCell id="YTk0UOEclc1TReDVA6bi-14" style="edgeStyle=orthogonalEdgeStyle;rounded=0;orthogonalLoop=1;jettySize=auto;html=1;entryX=0;entryY=0.5;entryDx=0;entryDy=0;" parent="1" source="YTk0UOEclc1TReDVA6bi-16" target="YTk0UOEclc1TReDVA6bi-17" edge="1">
          <mxGeometry relative="1" as="geometry">
            <mxPoint x="-3120" y="262" as="targetPoint" />
          </mxGeometry>
        </mxCell>
        <mxCell id="YTk0UOEclc1TReDVA6bi-15" value="[驗證成功]" style="edgeLabel;html=1;align=center;verticalAlign=middle;resizable=0;points=[];" parent="YTk0UOEclc1TReDVA6bi-14" vertex="1" connectable="0">
          <mxGeometry x="-0.2047" y="-1" relative="1" as="geometry">
            <mxPoint x="1" y="-1" as="offset" />
          </mxGeometry>
        </mxCell>
        <mxCell id="YTk0UOEclc1TReDVA6bi-16" value="" style="rhombus;whiteSpace=wrap;html=1;" parent="1" vertex="1">
          <mxGeometry x="-3235" y="253" width="30" height="18" as="geometry" />
        </mxCell>
        <mxCell id="YTk0UOEclc1TReDVA6bi-17" value="提示登入成功" style="rounded=1;whiteSpace=wrap;html=1;" parent="1" vertex="1">
          <mxGeometry x="-3120" y="246.5" width="120" height="31" as="geometry" />
        </mxCell>
        <mxCell id="YTk0UOEclc1TReDVA6bi-18" style="edgeStyle=orthogonalEdgeStyle;rounded=0;orthogonalLoop=1;jettySize=auto;html=1;entryX=0.5;entryY=0;entryDx=0;entryDy=0;" parent="1" target="YTk0UOEclc1TReDVA6bi-65" edge="1">
          <mxGeometry relative="1" as="geometry">
            <mxPoint x="-3060" y="277.5" as="sourcePoint" />
            <mxPoint x="-3060" y="299.5" as="targetPoint" />
          </mxGeometry>
        </mxCell>
        <mxCell id="YTk0UOEclc1TReDVA6bi-24" style="edgeStyle=orthogonalEdgeStyle;rounded=0;orthogonalLoop=1;jettySize=auto;html=1;entryX=0.5;entryY=0;entryDx=0;entryDy=0;" parent="1" source="YTk0UOEclc1TReDVA6bi-25" target="YTk0UOEclc1TReDVA6bi-27" edge="1">
          <mxGeometry relative="1" as="geometry" />
        </mxCell>
        <mxCell id="YTk0UOEclc1TReDVA6bi-25" value="輸入管理者資料" style="rounded=1;whiteSpace=wrap;html=1;" parent="1" vertex="1">
          <mxGeometry x="-3120" y="370" width="120" height="31" as="geometry" />
        </mxCell>
        <mxCell id="3-yehK92utHS0WE6co6m-9" style="edgeStyle=orthogonalEdgeStyle;rounded=0;orthogonalLoop=1;jettySize=auto;html=1;entryX=0.5;entryY=0;entryDx=0;entryDy=0;" parent="1" source="YTk0UOEclc1TReDVA6bi-27" target="3-yehK92utHS0WE6co6m-6" edge="1">
          <mxGeometry relative="1" as="geometry" />
        </mxCell>
        <mxCell id="YTk0UOEclc1TReDVA6bi-27" value="驗證管理者資料" style="rounded=1;whiteSpace=wrap;html=1;" parent="1" vertex="1">
          <mxGeometry x="-3120" y="430" width="120" height="31" as="geometry" />
        </mxCell>
        <mxCell id="3-yehK92utHS0WE6co6m-16" style="edgeStyle=orthogonalEdgeStyle;rounded=0;orthogonalLoop=1;jettySize=auto;html=1;entryX=0.5;entryY=0;entryDx=0;entryDy=0;" parent="1" source="YTk0UOEclc1TReDVA6bi-33" target="YTk0UOEclc1TReDVA6bi-62" edge="1">
          <mxGeometry relative="1" as="geometry" />
        </mxCell>
        <mxCell id="YTk0UOEclc1TReDVA6bi-33" value="建立管理者帳號" style="rounded=1;whiteSpace=wrap;html=1;" parent="1" vertex="1">
          <mxGeometry x="-2970" y="484" width="120" height="31" as="geometry" />
        </mxCell>
        <mxCell id="3-yehK92utHS0WE6co6m-17" style="edgeStyle=orthogonalEdgeStyle;rounded=0;orthogonalLoop=1;jettySize=auto;html=1;entryX=1;entryY=0.5;entryDx=0;entryDy=0;" parent="1" source="YTk0UOEclc1TReDVA6bi-62" target="YTk0UOEclc1TReDVA6bi-9" edge="1">
          <mxGeometry relative="1" as="geometry">
            <Array as="points">
              <mxPoint x="-2910" y="605" />
            </Array>
          </mxGeometry>
        </mxCell>
        <mxCell id="YTk0UOEclc1TReDVA6bi-62" value="建立成功" style="rounded=1;whiteSpace=wrap;html=1;" parent="1" vertex="1">
          <mxGeometry x="-2970" y="550" width="120" height="31" as="geometry" />
        </mxCell>
        <mxCell id="YTk0UOEclc1TReDVA6bi-66" style="edgeStyle=orthogonalEdgeStyle;rounded=0;orthogonalLoop=1;jettySize=auto;html=1;entryX=0.5;entryY=0;entryDx=0;entryDy=0;" parent="1" source="YTk0UOEclc1TReDVA6bi-65" target="YTk0UOEclc1TReDVA6bi-25" edge="1">
          <mxGeometry relative="1" as="geometry" />
        </mxCell>
        <mxCell id="YTk0UOEclc1TReDVA6bi-65" value="建立新管理者帳號" style="rounded=1;whiteSpace=wrap;html=1;" parent="1" vertex="1">
          <mxGeometry x="-3120" y="310" width="120" height="31" as="geometry" />
        </mxCell>
        <mxCell id="3-yehK92utHS0WE6co6m-12" style="edgeStyle=orthogonalEdgeStyle;rounded=0;orthogonalLoop=1;jettySize=auto;html=1;entryX=0.5;entryY=0;entryDx=0;entryDy=0;" parent="1" source="3-yehK92utHS0WE6co6m-6" target="3-yehK92utHS0WE6co6m-11" edge="1">
          <mxGeometry relative="1" as="geometry" />
        </mxCell>
        <mxCell id="3-yehK92utHS0WE6co6m-13" value="[檢查失敗]" style="edgeLabel;html=1;align=center;verticalAlign=middle;resizable=0;points=[];" parent="3-yehK92utHS0WE6co6m-12" vertex="1" connectable="0">
          <mxGeometry x="-0.2683" y="-2" relative="1" as="geometry">
            <mxPoint as="offset" />
          </mxGeometry>
        </mxCell>
        <mxCell id="3-yehK92utHS0WE6co6m-14" style="edgeStyle=orthogonalEdgeStyle;rounded=0;orthogonalLoop=1;jettySize=auto;html=1;entryX=0;entryY=0.5;entryDx=0;entryDy=0;" parent="1" source="3-yehK92utHS0WE6co6m-6" target="YTk0UOEclc1TReDVA6bi-33" edge="1">
          <mxGeometry relative="1" as="geometry" />
        </mxCell>
        <mxCell id="3-yehK92utHS0WE6co6m-15" value="[檢查成功]" style="edgeLabel;html=1;align=center;verticalAlign=middle;resizable=0;points=[];" parent="3-yehK92utHS0WE6co6m-14" vertex="1" connectable="0">
          <mxGeometry x="-0.5124" relative="1" as="geometry">
            <mxPoint x="13" y="-1" as="offset" />
          </mxGeometry>
        </mxCell>
        <mxCell id="3-yehK92utHS0WE6co6m-6" value="" style="rhombus;whiteSpace=wrap;html=1;" parent="1" vertex="1">
          <mxGeometry x="-3075" y="490" width="30" height="19" as="geometry" />
        </mxCell>
        <mxCell id="3-yehK92utHS0WE6co6m-18" style="edgeStyle=orthogonalEdgeStyle;rounded=0;orthogonalLoop=1;jettySize=auto;html=1;entryX=1;entryY=0.5;entryDx=0;entryDy=0;" parent="1" source="3-yehK92utHS0WE6co6m-11" target="YTk0UOEclc1TReDVA6bi-9" edge="1">
          <mxGeometry relative="1" as="geometry">
            <Array as="points">
              <mxPoint x="-3060" y="605" />
            </Array>
          </mxGeometry>
        </mxCell>
        <mxCell id="3-yehK92utHS0WE6co6m-11" value="建立失敗" style="rounded=1;whiteSpace=wrap;html=1;" parent="1" vertex="1">
          <mxGeometry x="-3120" y="550" width="120" height="31" as="geometry" />
        </mxCell>
        <mxCell id="08S1QHdA9fq4MExFu-jZ-1" value="&lt;div&gt;&lt;span style=&quot;background-color: initial;&quot;&gt;信箱(帳號)&lt;/span&gt;&lt;br&gt;&lt;/div&gt;&lt;div&gt;使用者名稱&lt;br&gt;&lt;/div&gt;&lt;div&gt;密碼&lt;/div&gt;" style="shape=note2;boundedLbl=1;whiteSpace=wrap;html=1;size=18;verticalAlign=top;align=center;" parent="1" vertex="1">
          <mxGeometry x="-2970" y="345.5" width="120" height="80" as="geometry" />
        </mxCell>
        <mxCell id="08S1QHdA9fq4MExFu-jZ-2" style="edgeStyle=orthogonalEdgeStyle;rounded=0;orthogonalLoop=1;jettySize=auto;html=1;entryX=0;entryY=0.5;entryDx=0;entryDy=0;entryPerimeter=0;endArrow=none;endFill=0;dashed=1;" parent="1" source="YTk0UOEclc1TReDVA6bi-25" target="08S1QHdA9fq4MExFu-jZ-1" edge="1">
          <mxGeometry relative="1" as="geometry" />
        </mxCell>
      </root>
    </mxGraphModel>
  </diagram>
  <diagram id="CH_-VHRHPCUqJ_hrd_AA" name="爬蟲程式控制">
    <mxGraphModel dx="5101" dy="1045" grid="1" gridSize="10" guides="1" tooltips="1" connect="1" arrows="1" fold="1" page="1" pageScale="1" pageWidth="827" pageHeight="1169" math="0" shadow="0">
      <root>
        <mxCell id="0" />
        <mxCell id="1" parent="0" />
        <mxCell id="Or5P5VLcUTegkwQT8cki-1" value="進入管理者登入頁面" style="rounded=1;whiteSpace=wrap;html=1;" parent="1" vertex="1">
          <mxGeometry x="-3140" y="59.5" width="120" height="31" as="geometry" />
        </mxCell>
        <mxCell id="Or5P5VLcUTegkwQT8cki-2" style="edgeStyle=orthogonalEdgeStyle;rounded=0;orthogonalLoop=1;jettySize=auto;html=1;exitX=0.5;exitY=1;exitDx=0;exitDy=0;" parent="1" source="Or5P5VLcUTegkwQT8cki-3" target="Or5P5VLcUTegkwQT8cki-1" edge="1">
          <mxGeometry relative="1" as="geometry" />
        </mxCell>
        <mxCell id="Or5P5VLcUTegkwQT8cki-3" value="" style="ellipse;whiteSpace=wrap;html=1;aspect=fixed;fillColor=#000000;" parent="1" vertex="1">
          <mxGeometry x="-3090" y="20" width="20" height="20" as="geometry" />
        </mxCell>
        <mxCell id="Or5P5VLcUTegkwQT8cki-4" style="edgeStyle=orthogonalEdgeStyle;rounded=0;orthogonalLoop=1;jettySize=auto;html=1;entryX=0.5;entryY=0;entryDx=0;entryDy=0;" parent="1" source="Or5P5VLcUTegkwQT8cki-5" edge="1">
          <mxGeometry relative="1" as="geometry">
            <mxPoint x="-3080" y="180" as="targetPoint" />
          </mxGeometry>
        </mxCell>
        <mxCell id="Or5P5VLcUTegkwQT8cki-5" value="管理者登入" style="rounded=1;whiteSpace=wrap;html=1;" parent="1" vertex="1">
          <mxGeometry x="-3140" y="120" width="120" height="31" as="geometry" />
        </mxCell>
        <mxCell id="Or5P5VLcUTegkwQT8cki-6" value="" style="edgeStyle=orthogonalEdgeStyle;rounded=0;orthogonalLoop=1;jettySize=auto;html=1;exitX=0.5;exitY=1;exitDx=0;exitDy=0;entryX=0.5;entryY=0;entryDx=0;entryDy=0;" parent="1" source="Or5P5VLcUTegkwQT8cki-1" edge="1">
          <mxGeometry relative="1" as="geometry">
            <mxPoint x="-3080" y="90" as="sourcePoint" />
            <mxPoint x="-3080" y="120.5" as="targetPoint" />
          </mxGeometry>
        </mxCell>
        <mxCell id="Or5P5VLcUTegkwQT8cki-9" value="進入爬蟲管理專區" style="rounded=1;whiteSpace=wrap;html=1;" parent="1" vertex="1">
          <mxGeometry x="-3140" y="180" width="120" height="31" as="geometry" />
        </mxCell>
        <mxCell id="ybguV2blcR9voyf6sQYk-1" style="edgeStyle=orthogonalEdgeStyle;rounded=0;orthogonalLoop=1;jettySize=auto;html=1;entryX=0.5;entryY=0;entryDx=0;entryDy=0;" parent="1" target="ybguV2blcR9voyf6sQYk-6" edge="1">
          <mxGeometry relative="1" as="geometry">
            <mxPoint x="-3080" y="211" as="sourcePoint" />
          </mxGeometry>
        </mxCell>
        <mxCell id="ybguV2blcR9voyf6sQYk-2" style="edgeStyle=orthogonalEdgeStyle;rounded=0;orthogonalLoop=1;jettySize=auto;html=1;entryX=0.5;entryY=0;entryDx=0;entryDy=0;" parent="1" source="ybguV2blcR9voyf6sQYk-6" target="ybguV2blcR9voyf6sQYk-7" edge="1">
          <mxGeometry relative="1" as="geometry">
            <mxPoint x="-3080" y="303.5" as="targetPoint" />
          </mxGeometry>
        </mxCell>
        <mxCell id="ybguV2blcR9voyf6sQYk-3" value="選擇手動執行爬蟲" style="edgeLabel;html=1;align=center;verticalAlign=middle;resizable=0;points=[];" parent="ybguV2blcR9voyf6sQYk-2" vertex="1" connectable="0">
          <mxGeometry x="-0.3925" y="1" relative="1" as="geometry">
            <mxPoint x="-1" y="4" as="offset" />
          </mxGeometry>
        </mxCell>
        <mxCell id="ybguV2blcR9voyf6sQYk-4" style="edgeStyle=orthogonalEdgeStyle;rounded=0;orthogonalLoop=1;jettySize=auto;html=1;entryX=0.5;entryY=0;entryDx=0;entryDy=0;" parent="1" target="ybguV2blcR9voyf6sQYk-27" edge="1">
          <mxGeometry relative="1" as="geometry">
            <mxPoint x="-2945" y="242.5" as="targetPoint" />
            <mxPoint x="-3065" y="241.83000000000004" as="sourcePoint" />
            <Array as="points">
              <mxPoint x="-2940" y="242" />
            </Array>
          </mxGeometry>
        </mxCell>
        <mxCell id="ybguV2blcR9voyf6sQYk-5" value="選擇爬蟲排程" style="edgeLabel;html=1;align=center;verticalAlign=middle;resizable=0;points=[];" parent="ybguV2blcR9voyf6sQYk-4" vertex="1" connectable="0">
          <mxGeometry x="-0.2047" y="-1" relative="1" as="geometry">
            <mxPoint x="-23" y="-1" as="offset" />
          </mxGeometry>
        </mxCell>
        <mxCell id="ybguV2blcR9voyf6sQYk-6" value="" style="rhombus;whiteSpace=wrap;html=1;" parent="1" vertex="1">
          <mxGeometry x="-3095" y="233" width="30" height="18" as="geometry" />
        </mxCell>
        <mxCell id="ybguV2blcR9voyf6sQYk-12" style="edgeStyle=orthogonalEdgeStyle;rounded=0;orthogonalLoop=1;jettySize=auto;html=1;entryX=0.5;entryY=0;entryDx=0;entryDy=0;" parent="1" source="ybguV2blcR9voyf6sQYk-7" target="ybguV2blcR9voyf6sQYk-11" edge="1">
          <mxGeometry relative="1" as="geometry" />
        </mxCell>
        <mxCell id="ybguV2blcR9voyf6sQYk-7" value="設定爬蟲參數" style="rounded=1;whiteSpace=wrap;html=1;" parent="1" vertex="1">
          <mxGeometry x="-3140" y="300.25" width="120" height="31" as="geometry" />
        </mxCell>
        <mxCell id="ybguV2blcR9voyf6sQYk-9" value="&lt;div&gt;爬蟲關鍵字&lt;div&gt;最大嘗試次數&lt;/div&gt;&lt;/div&gt;" style="shape=note2;boundedLbl=1;whiteSpace=wrap;html=1;size=18;verticalAlign=top;align=center;" parent="1" vertex="1">
          <mxGeometry x="-3290" y="265" width="120" height="84.5" as="geometry" />
        </mxCell>
        <mxCell id="ybguV2blcR9voyf6sQYk-10" style="edgeStyle=orthogonalEdgeStyle;rounded=0;orthogonalLoop=1;jettySize=auto;html=1;entryX=0;entryY=0;entryDx=120;entryDy=51.25;entryPerimeter=0;endArrow=none;endFill=0;dashed=1;" parent="1" source="ybguV2blcR9voyf6sQYk-7" target="ybguV2blcR9voyf6sQYk-9" edge="1">
          <mxGeometry relative="1" as="geometry" />
        </mxCell>
        <mxCell id="ybguV2blcR9voyf6sQYk-17" style="edgeStyle=orthogonalEdgeStyle;rounded=0;orthogonalLoop=1;jettySize=auto;html=1;entryX=0.5;entryY=0;entryDx=0;entryDy=0;" parent="1" source="ybguV2blcR9voyf6sQYk-11" target="ybguV2blcR9voyf6sQYk-16" edge="1">
          <mxGeometry relative="1" as="geometry" />
        </mxCell>
        <mxCell id="ybguV2blcR9voyf6sQYk-11" value="執行爬蟲程式" style="rounded=1;whiteSpace=wrap;html=1;" parent="1" vertex="1">
          <mxGeometry x="-3140" y="370" width="120" height="31" as="geometry" />
        </mxCell>
        <mxCell id="ybguV2blcR9voyf6sQYk-16" value="檢查爬蟲程式運作" style="rounded=1;whiteSpace=wrap;html=1;" parent="1" vertex="1">
          <mxGeometry x="-3140" y="432" width="120" height="31" as="geometry" />
        </mxCell>
        <mxCell id="ybguV2blcR9voyf6sQYk-21" style="edgeStyle=orthogonalEdgeStyle;rounded=0;orthogonalLoop=1;jettySize=auto;html=1;entryX=0.5;entryY=0;entryDx=0;entryDy=0;" parent="1" target="ybguV2blcR9voyf6sQYk-26" edge="1">
          <mxGeometry relative="1" as="geometry">
            <mxPoint x="-3080" y="463" as="sourcePoint" />
          </mxGeometry>
        </mxCell>
        <mxCell id="ybguV2blcR9voyf6sQYk-22" style="edgeStyle=orthogonalEdgeStyle;rounded=0;orthogonalLoop=1;jettySize=auto;html=1;entryX=0.5;entryY=0;entryDx=0;entryDy=0;" parent="1" source="ybguV2blcR9voyf6sQYk-26" target="ybguV2blcR9voyf6sQYk-34" edge="1">
          <mxGeometry relative="1" as="geometry">
            <mxPoint x="-3080" y="547.0000000000002" as="targetPoint" />
          </mxGeometry>
        </mxCell>
        <mxCell id="ybguV2blcR9voyf6sQYk-23" value="[正常]" style="edgeLabel;html=1;align=center;verticalAlign=middle;resizable=0;points=[];" parent="ybguV2blcR9voyf6sQYk-22" vertex="1" connectable="0">
          <mxGeometry x="-0.3925" y="1" relative="1" as="geometry">
            <mxPoint x="-1" y="2" as="offset" />
          </mxGeometry>
        </mxCell>
        <mxCell id="ybguV2blcR9voyf6sQYk-24" style="edgeStyle=orthogonalEdgeStyle;rounded=0;orthogonalLoop=1;jettySize=auto;html=1;" parent="1" edge="1">
          <mxGeometry relative="1" as="geometry">
            <mxPoint x="-3010" y="494" as="targetPoint" />
            <mxPoint x="-3065" y="493.8299999999999" as="sourcePoint" />
          </mxGeometry>
        </mxCell>
        <mxCell id="ybguV2blcR9voyf6sQYk-25" value="[失敗]" style="edgeLabel;html=1;align=center;verticalAlign=middle;resizable=0;points=[];" parent="ybguV2blcR9voyf6sQYk-24" vertex="1" connectable="0">
          <mxGeometry x="-0.2047" y="-1" relative="1" as="geometry">
            <mxPoint x="1" y="-1" as="offset" />
          </mxGeometry>
        </mxCell>
        <mxCell id="ybguV2blcR9voyf6sQYk-26" value="" style="rhombus;whiteSpace=wrap;html=1;" parent="1" vertex="1">
          <mxGeometry x="-3095" y="485" width="30" height="18" as="geometry" />
        </mxCell>
        <mxCell id="gI2U_GVZowBXoOFcDs3t-7" style="edgeStyle=orthogonalEdgeStyle;rounded=0;orthogonalLoop=1;jettySize=auto;html=1;entryX=0;entryY=0.5;entryDx=0;entryDy=0;" edge="1" parent="1" source="ybguV2blcR9voyf6sQYk-27" target="gI2U_GVZowBXoOFcDs3t-5">
          <mxGeometry relative="1" as="geometry" />
        </mxCell>
        <mxCell id="ybguV2blcR9voyf6sQYk-27" value="設定排程參數" style="rounded=1;whiteSpace=wrap;html=1;" parent="1" vertex="1">
          <mxGeometry x="-3000" y="300.25" width="120" height="31" as="geometry" />
        </mxCell>
        <mxCell id="ybguV2blcR9voyf6sQYk-28" value="爬蟲關鍵字清單&lt;div&gt;&lt;span style=&quot;background-color: initial;&quot;&gt;最大嘗試次數&lt;/span&gt;&lt;br&gt;&lt;/div&gt;&lt;div&gt;&lt;div&gt;排程執行頻率&lt;/div&gt;&lt;/div&gt;" style="shape=note2;boundedLbl=1;whiteSpace=wrap;html=1;size=18;verticalAlign=top;align=center;" parent="1" vertex="1">
          <mxGeometry x="-2905" y="181.5" width="120" height="83.5" as="geometry" />
        </mxCell>
        <mxCell id="ybguV2blcR9voyf6sQYk-72" style="edgeStyle=orthogonalEdgeStyle;rounded=0;orthogonalLoop=1;jettySize=auto;html=1;entryX=0;entryY=0.5;entryDx=0;entryDy=0;" parent="1" source="ybguV2blcR9voyf6sQYk-34" target="ybguV2blcR9voyf6sQYk-35" edge="1">
          <mxGeometry relative="1" as="geometry" />
        </mxCell>
        <mxCell id="ybguV2blcR9voyf6sQYk-34" value="儲存至資料庫" style="rounded=1;whiteSpace=wrap;html=1;" parent="1" vertex="1">
          <mxGeometry x="-3140" y="542" width="120" height="31" as="geometry" />
        </mxCell>
        <mxCell id="ybguV2blcR9voyf6sQYk-73" style="edgeStyle=orthogonalEdgeStyle;rounded=0;orthogonalLoop=1;jettySize=auto;html=1;entryX=0;entryY=0.5;entryDx=0;entryDy=0;" parent="1" source="ybguV2blcR9voyf6sQYk-35" target="ybguV2blcR9voyf6sQYk-37" edge="1">
          <mxGeometry relative="1" as="geometry" />
        </mxCell>
        <mxCell id="ybguV2blcR9voyf6sQYk-35" value="爬蟲完成" style="rounded=1;whiteSpace=wrap;html=1;" parent="1" vertex="1">
          <mxGeometry x="-2990" y="542" width="120" height="31" as="geometry" />
        </mxCell>
        <mxCell id="ybguV2blcR9voyf6sQYk-37" value="" style="ellipse;html=1;shape=endState;fillColor=#000000;strokeColor=#000000;" parent="1" vertex="1">
          <mxGeometry x="-2780" y="543" width="30" height="30" as="geometry" />
        </mxCell>
        <mxCell id="ybguV2blcR9voyf6sQYk-74" style="edgeStyle=orthogonalEdgeStyle;rounded=0;orthogonalLoop=1;jettySize=auto;html=1;entryX=1;entryY=0.5;entryDx=0;entryDy=0;" parent="1" source="ybguV2blcR9voyf6sQYk-48" target="ybguV2blcR9voyf6sQYk-37" edge="1">
          <mxGeometry relative="1" as="geometry">
            <Array as="points">
              <mxPoint x="-2600" y="558" />
            </Array>
          </mxGeometry>
        </mxCell>
        <mxCell id="ybguV2blcR9voyf6sQYk-48" value="爬蟲失敗" style="rounded=1;whiteSpace=wrap;html=1;" parent="1" vertex="1">
          <mxGeometry x="-2660" y="478.5" width="120" height="31" as="geometry" />
        </mxCell>
        <mxCell id="ybguV2blcR9voyf6sQYk-66" style="edgeStyle=orthogonalEdgeStyle;rounded=0;orthogonalLoop=1;jettySize=auto;html=1;entryX=0;entryY=0.5;entryDx=0;entryDy=0;" parent="1" source="ybguV2blcR9voyf6sQYk-55" target="ybguV2blcR9voyf6sQYk-65" edge="1">
          <mxGeometry relative="1" as="geometry" />
        </mxCell>
        <mxCell id="ybguV2blcR9voyf6sQYk-55" value="檢查嘗試次數" style="rounded=1;whiteSpace=wrap;html=1;" parent="1" vertex="1">
          <mxGeometry x="-3010" y="478.5" width="120" height="31" as="geometry" />
        </mxCell>
        <mxCell id="ybguV2blcR9voyf6sQYk-68" style="edgeStyle=orthogonalEdgeStyle;rounded=0;orthogonalLoop=1;jettySize=auto;html=1;entryX=1;entryY=0.5;entryDx=0;entryDy=0;" parent="1" source="ybguV2blcR9voyf6sQYk-65" target="ybguV2blcR9voyf6sQYk-11" edge="1">
          <mxGeometry relative="1" as="geometry">
            <Array as="points">
              <mxPoint x="-2845" y="386" />
            </Array>
            <mxPoint x="-2880" y="385.4999999999999" as="targetPoint" />
          </mxGeometry>
        </mxCell>
        <mxCell id="ybguV2blcR9voyf6sQYk-69" value="[if 嘗試次數 &amp;lt;= 最大嘗試次數]" style="edgeLabel;html=1;align=center;verticalAlign=middle;resizable=0;points=[];" parent="ybguV2blcR9voyf6sQYk-68" vertex="1" connectable="0">
          <mxGeometry x="-0.6927" y="1" relative="1" as="geometry">
            <mxPoint x="1" y="5" as="offset" />
          </mxGeometry>
        </mxCell>
        <mxCell id="gI2U_GVZowBXoOFcDs3t-10" style="edgeStyle=orthogonalEdgeStyle;rounded=0;orthogonalLoop=1;jettySize=auto;html=1;entryX=0.5;entryY=1;entryDx=0;entryDy=0;" edge="1" parent="1" source="ybguV2blcR9voyf6sQYk-65" target="ybguV2blcR9voyf6sQYk-71">
          <mxGeometry relative="1" as="geometry" />
        </mxCell>
        <mxCell id="gI2U_GVZowBXoOFcDs3t-11" value="[if 嘗試次數 &amp;gt; 最大嘗試次數]" style="edgeLabel;html=1;align=center;verticalAlign=middle;resizable=0;points=[];" vertex="1" connectable="0" parent="gI2U_GVZowBXoOFcDs3t-10">
          <mxGeometry x="0.5104" y="-1" relative="1" as="geometry">
            <mxPoint x="-1" y="32" as="offset" />
          </mxGeometry>
        </mxCell>
        <mxCell id="ybguV2blcR9voyf6sQYk-65" value="" style="rhombus;whiteSpace=wrap;html=1;" parent="1" vertex="1">
          <mxGeometry x="-2860" y="485" width="30" height="18" as="geometry" />
        </mxCell>
        <mxCell id="ybguV2blcR9voyf6sQYk-75" style="edgeStyle=orthogonalEdgeStyle;rounded=0;orthogonalLoop=1;jettySize=auto;html=1;entryX=0.5;entryY=0;entryDx=0;entryDy=0;" parent="1" source="ybguV2blcR9voyf6sQYk-71" target="ybguV2blcR9voyf6sQYk-48" edge="1">
          <mxGeometry relative="1" as="geometry" />
        </mxCell>
        <mxCell id="ybguV2blcR9voyf6sQYk-71" value="超過最大嘗試次數" style="rounded=1;whiteSpace=wrap;html=1;" parent="1" vertex="1">
          <mxGeometry x="-2800" y="370" width="120" height="31" as="geometry" />
        </mxCell>
        <mxCell id="gI2U_GVZowBXoOFcDs3t-4" style="edgeStyle=orthogonalEdgeStyle;rounded=0;orthogonalLoop=1;jettySize=auto;html=1;entryX=0.776;entryY=0.044;entryDx=0;entryDy=0;entryPerimeter=0;dashed=1;endArrow=none;endFill=0;" edge="1" parent="1" source="ybguV2blcR9voyf6sQYk-28" target="ybguV2blcR9voyf6sQYk-27">
          <mxGeometry relative="1" as="geometry" />
        </mxCell>
        <mxCell id="gI2U_GVZowBXoOFcDs3t-8" style="edgeStyle=orthogonalEdgeStyle;rounded=0;orthogonalLoop=1;jettySize=auto;html=1;entryX=0;entryY=0.5;entryDx=0;entryDy=0;" edge="1" parent="1" source="gI2U_GVZowBXoOFcDs3t-5" target="gI2U_GVZowBXoOFcDs3t-6">
          <mxGeometry relative="1" as="geometry" />
        </mxCell>
        <mxCell id="gI2U_GVZowBXoOFcDs3t-5" value="建立爬蟲排程" style="rounded=1;whiteSpace=wrap;html=1;" vertex="1" parent="1">
          <mxGeometry x="-2830" y="300.25" width="120" height="31" as="geometry" />
        </mxCell>
        <mxCell id="gI2U_GVZowBXoOFcDs3t-9" style="edgeStyle=orthogonalEdgeStyle;rounded=0;orthogonalLoop=1;jettySize=auto;html=1;entryX=0.5;entryY=1;entryDx=0;entryDy=0;" edge="1" parent="1" source="gI2U_GVZowBXoOFcDs3t-6" target="ybguV2blcR9voyf6sQYk-37">
          <mxGeometry relative="1" as="geometry">
            <Array as="points">
              <mxPoint x="-2520" y="316" />
              <mxPoint x="-2520" y="593" />
              <mxPoint x="-2765" y="593" />
            </Array>
          </mxGeometry>
        </mxCell>
        <mxCell id="gI2U_GVZowBXoOFcDs3t-6" value="建立成功" style="rounded=1;whiteSpace=wrap;html=1;" vertex="1" parent="1">
          <mxGeometry x="-2660" y="300.25" width="120" height="31" as="geometry" />
        </mxCell>
      </root>
    </mxGraphModel>
  </diagram>
  <diagram id="zkCQzoun6FY8uWP7Xk63" name="爬蟲資料確認">
    <mxGraphModel dx="4742" dy="836" grid="1" gridSize="10" guides="1" tooltips="1" connect="1" arrows="1" fold="1" page="1" pageScale="1" pageWidth="827" pageHeight="1169" math="0" shadow="0">
      <root>
        <mxCell id="0" />
        <mxCell id="1" parent="0" />
        <mxCell id="PYfjQ83cFtxB1XMa9_4I-1" value="進入管理者登入頁面" style="rounded=1;whiteSpace=wrap;html=1;" parent="1" vertex="1">
          <mxGeometry x="-3280" y="79.5" width="120" height="31" as="geometry" />
        </mxCell>
        <mxCell id="PYfjQ83cFtxB1XMa9_4I-2" style="edgeStyle=orthogonalEdgeStyle;rounded=0;orthogonalLoop=1;jettySize=auto;html=1;exitX=0.5;exitY=1;exitDx=0;exitDy=0;" parent="1" source="PYfjQ83cFtxB1XMa9_4I-3" target="PYfjQ83cFtxB1XMa9_4I-1" edge="1">
          <mxGeometry relative="1" as="geometry" />
        </mxCell>
        <mxCell id="PYfjQ83cFtxB1XMa9_4I-3" value="" style="ellipse;whiteSpace=wrap;html=1;aspect=fixed;fillColor=#000000;" parent="1" vertex="1">
          <mxGeometry x="-3230" y="40" width="20" height="20" as="geometry" />
        </mxCell>
        <mxCell id="PYfjQ83cFtxB1XMa9_4I-4" style="edgeStyle=orthogonalEdgeStyle;rounded=0;orthogonalLoop=1;jettySize=auto;html=1;entryX=0.5;entryY=0;entryDx=0;entryDy=0;" parent="1" source="PYfjQ83cFtxB1XMa9_4I-5" edge="1">
          <mxGeometry relative="1" as="geometry">
            <mxPoint x="-3220" y="200" as="targetPoint" />
          </mxGeometry>
        </mxCell>
        <mxCell id="PYfjQ83cFtxB1XMa9_4I-5" value="管理者登入" style="rounded=1;whiteSpace=wrap;html=1;" parent="1" vertex="1">
          <mxGeometry x="-3280" y="140" width="120" height="31" as="geometry" />
        </mxCell>
        <mxCell id="PYfjQ83cFtxB1XMa9_4I-6" value="" style="edgeStyle=orthogonalEdgeStyle;rounded=0;orthogonalLoop=1;jettySize=auto;html=1;exitX=0.5;exitY=1;exitDx=0;exitDy=0;entryX=0.5;entryY=0;entryDx=0;entryDy=0;" parent="1" source="PYfjQ83cFtxB1XMa9_4I-1" edge="1">
          <mxGeometry relative="1" as="geometry">
            <mxPoint x="-3220" y="110" as="sourcePoint" />
            <mxPoint x="-3220" y="140.5" as="targetPoint" />
          </mxGeometry>
        </mxCell>
        <mxCell id="PYfjQ83cFtxB1XMa9_4I-9" value="" style="ellipse;html=1;shape=endState;fillColor=#000000;strokeColor=#000000;" parent="1" vertex="1">
          <mxGeometry x="-3235" y="590" width="30" height="30" as="geometry" />
        </mxCell>
        <mxCell id="iSTWVv5LwtlGFWiGenUK-5" style="edgeStyle=orthogonalEdgeStyle;rounded=0;orthogonalLoop=1;jettySize=auto;html=1;entryX=0.5;entryY=0;entryDx=0;entryDy=0;" parent="1" source="C-7kaWpfObtGHNj7FkXE-1" target="45VVwCTTIp8zqHwcjrm9-1" edge="1">
          <mxGeometry relative="1" as="geometry" />
        </mxCell>
        <mxCell id="C-7kaWpfObtGHNj7FkXE-1" value="進入資料管理專區" style="rounded=1;whiteSpace=wrap;html=1;" parent="1" vertex="1">
          <mxGeometry x="-3280" y="200" width="120" height="31" as="geometry" />
        </mxCell>
        <mxCell id="iSTWVv5LwtlGFWiGenUK-6" style="edgeStyle=orthogonalEdgeStyle;rounded=0;orthogonalLoop=1;jettySize=auto;html=1;entryX=0.5;entryY=0;entryDx=0;entryDy=0;" parent="1" source="45VVwCTTIp8zqHwcjrm9-1" target="iSTWVv5LwtlGFWiGenUK-1" edge="1">
          <mxGeometry relative="1" as="geometry" />
        </mxCell>
        <mxCell id="45VVwCTTIp8zqHwcjrm9-1" value="手動檢查資料庫" style="rounded=1;whiteSpace=wrap;html=1;" parent="1" vertex="1">
          <mxGeometry x="-3280" y="260" width="120" height="31" as="geometry" />
        </mxCell>
        <mxCell id="iSTWVv5LwtlGFWiGenUK-1" value="取得資料庫" style="rounded=1;whiteSpace=wrap;html=1;" parent="1" vertex="1">
          <mxGeometry x="-3280" y="317.5" width="120" height="31" as="geometry" />
        </mxCell>
        <mxCell id="-ynzkJXffnAPv18Onzld-20" style="edgeStyle=orthogonalEdgeStyle;rounded=0;orthogonalLoop=1;jettySize=auto;html=1;entryX=0.5;entryY=0;entryDx=0;entryDy=0;" parent="1" target="-ynzkJXffnAPv18Onzld-13" edge="1">
          <mxGeometry relative="1" as="geometry">
            <mxPoint x="-3050" y="450" as="sourcePoint" />
          </mxGeometry>
        </mxCell>
        <mxCell id="-ynzkJXffnAPv18Onzld-22" style="edgeStyle=orthogonalEdgeStyle;rounded=0;orthogonalLoop=1;jettySize=auto;html=1;entryX=0.5;entryY=0;entryDx=0;entryDy=0;" parent="1" source="iSTWVv5LwtlGFWiGenUK-2" target="-ynzkJXffnAPv18Onzld-21" edge="1">
          <mxGeometry relative="1" as="geometry" />
        </mxCell>
        <mxCell id="iSTWVv5LwtlGFWiGenUK-2" value="移除不完整的資料" style="rounded=1;whiteSpace=wrap;html=1;" parent="1" vertex="1">
          <mxGeometry x="-3110" y="364" width="120" height="31" as="geometry" />
        </mxCell>
        <mxCell id="-ynzkJXffnAPv18Onzld-27" style="edgeStyle=orthogonalEdgeStyle;rounded=0;orthogonalLoop=1;jettySize=auto;html=1;entryX=0.5;entryY=0;entryDx=0;entryDy=0;" parent="1" source="iSTWVv5LwtlGFWiGenUK-3" target="-ynzkJXffnAPv18Onzld-26" edge="1">
          <mxGeometry relative="1" as="geometry" />
        </mxCell>
        <mxCell id="iSTWVv5LwtlGFWiGenUK-3" value="重新爬取對應資料" style="rounded=1;whiteSpace=wrap;html=1;" parent="1" vertex="1">
          <mxGeometry x="-2970" y="471" width="120" height="31" as="geometry" />
        </mxCell>
        <mxCell id="-ynzkJXffnAPv18Onzld-1" style="edgeStyle=orthogonalEdgeStyle;rounded=0;orthogonalLoop=1;jettySize=auto;html=1;entryX=0.5;entryY=0;entryDx=0;entryDy=0;" parent="1" target="-ynzkJXffnAPv18Onzld-6" edge="1">
          <mxGeometry relative="1" as="geometry">
            <mxPoint x="-3220" y="348.5" as="sourcePoint" />
          </mxGeometry>
        </mxCell>
        <mxCell id="-ynzkJXffnAPv18Onzld-2" style="edgeStyle=orthogonalEdgeStyle;rounded=0;orthogonalLoop=1;jettySize=auto;html=1;entryX=0.5;entryY=0;entryDx=0;entryDy=0;" parent="1" source="-ynzkJXffnAPv18Onzld-6" target="-ynzkJXffnAPv18Onzld-7" edge="1">
          <mxGeometry relative="1" as="geometry">
            <mxPoint x="-3220" y="437.5" as="targetPoint" />
          </mxGeometry>
        </mxCell>
        <mxCell id="-ynzkJXffnAPv18Onzld-3" value="[資料正確]" style="edgeLabel;html=1;align=center;verticalAlign=middle;resizable=0;points=[];" parent="-ynzkJXffnAPv18Onzld-2" vertex="1" connectable="0">
          <mxGeometry x="-0.3925" y="1" relative="1" as="geometry">
            <mxPoint x="-1" y="4" as="offset" />
          </mxGeometry>
        </mxCell>
        <mxCell id="-ynzkJXffnAPv18Onzld-4" style="edgeStyle=orthogonalEdgeStyle;rounded=0;orthogonalLoop=1;jettySize=auto;html=1;" parent="1" source="-ynzkJXffnAPv18Onzld-6" edge="1">
          <mxGeometry relative="1" as="geometry">
            <mxPoint x="-3110" y="380" as="targetPoint" />
          </mxGeometry>
        </mxCell>
        <mxCell id="-ynzkJXffnAPv18Onzld-5" value="[資料錯誤]" style="edgeLabel;html=1;align=center;verticalAlign=middle;resizable=0;points=[];" parent="-ynzkJXffnAPv18Onzld-4" vertex="1" connectable="0">
          <mxGeometry x="-0.2047" y="-1" relative="1" as="geometry">
            <mxPoint x="1" y="-1" as="offset" />
          </mxGeometry>
        </mxCell>
        <mxCell id="-ynzkJXffnAPv18Onzld-6" value="" style="rhombus;whiteSpace=wrap;html=1;" parent="1" vertex="1">
          <mxGeometry x="-3235" y="370.5" width="30" height="18" as="geometry" />
        </mxCell>
        <mxCell id="-ynzkJXffnAPv18Onzld-30" style="edgeStyle=orthogonalEdgeStyle;rounded=0;orthogonalLoop=1;jettySize=auto;html=1;entryX=0.5;entryY=0;entryDx=0;entryDy=0;" parent="1" source="-ynzkJXffnAPv18Onzld-7" target="PYfjQ83cFtxB1XMa9_4I-9" edge="1">
          <mxGeometry relative="1" as="geometry" />
        </mxCell>
        <mxCell id="-ynzkJXffnAPv18Onzld-7" value="資料無誤" style="rounded=1;whiteSpace=wrap;html=1;" parent="1" vertex="1">
          <mxGeometry x="-3280" y="438" width="120" height="31" as="geometry" />
        </mxCell>
        <mxCell id="-ynzkJXffnAPv18Onzld-9" style="edgeStyle=orthogonalEdgeStyle;rounded=0;orthogonalLoop=1;jettySize=auto;html=1;entryX=0.5;entryY=0;entryDx=0;entryDy=0;" parent="1" source="-ynzkJXffnAPv18Onzld-13" target="-ynzkJXffnAPv18Onzld-24" edge="1">
          <mxGeometry relative="1" as="geometry">
            <mxPoint x="-3050" y="545" as="targetPoint" />
          </mxGeometry>
        </mxCell>
        <mxCell id="-ynzkJXffnAPv18Onzld-10" value="[否]" style="edgeLabel;html=1;align=center;verticalAlign=middle;resizable=0;points=[];" parent="-ynzkJXffnAPv18Onzld-9" vertex="1" connectable="0">
          <mxGeometry x="-0.3925" y="1" relative="1" as="geometry">
            <mxPoint x="-1" y="4" as="offset" />
          </mxGeometry>
        </mxCell>
        <mxCell id="-ynzkJXffnAPv18Onzld-11" style="edgeStyle=orthogonalEdgeStyle;rounded=0;orthogonalLoop=1;jettySize=auto;html=1;entryX=0;entryY=0.5;entryDx=0;entryDy=0;" parent="1" source="-ynzkJXffnAPv18Onzld-13" target="iSTWVv5LwtlGFWiGenUK-3" edge="1">
          <mxGeometry relative="1" as="geometry">
            <mxPoint x="-2940" y="487" as="targetPoint" />
          </mxGeometry>
        </mxCell>
        <mxCell id="-ynzkJXffnAPv18Onzld-23" value="[是]" style="edgeLabel;html=1;align=center;verticalAlign=middle;resizable=0;points=[];" parent="-ynzkJXffnAPv18Onzld-11" vertex="1" connectable="0">
          <mxGeometry x="-0.6042" relative="1" as="geometry">
            <mxPoint x="7" as="offset" />
          </mxGeometry>
        </mxCell>
        <mxCell id="-ynzkJXffnAPv18Onzld-13" value="" style="rhombus;whiteSpace=wrap;html=1;" parent="1" vertex="1">
          <mxGeometry x="-3065" y="477.5" width="30" height="18" as="geometry" />
        </mxCell>
        <mxCell id="-ynzkJXffnAPv18Onzld-21" value="是否重新爬取" style="rounded=1;whiteSpace=wrap;html=1;" parent="1" vertex="1">
          <mxGeometry x="-3110" y="420" width="120" height="31" as="geometry" />
        </mxCell>
        <mxCell id="-ynzkJXffnAPv18Onzld-29" style="edgeStyle=orthogonalEdgeStyle;rounded=0;orthogonalLoop=1;jettySize=auto;html=1;entryX=1;entryY=0.5;entryDx=0;entryDy=0;" parent="1" source="-ynzkJXffnAPv18Onzld-24" target="PYfjQ83cFtxB1XMa9_4I-9" edge="1">
          <mxGeometry relative="1" as="geometry">
            <Array as="points">
              <mxPoint x="-3050" y="605" />
            </Array>
          </mxGeometry>
        </mxCell>
        <mxCell id="-ynzkJXffnAPv18Onzld-24" value="存在不完整資料" style="rounded=1;whiteSpace=wrap;html=1;" parent="1" vertex="1">
          <mxGeometry x="-3110" y="540" width="120" height="31" as="geometry" />
        </mxCell>
        <mxCell id="-ynzkJXffnAPv18Onzld-28" style="edgeStyle=orthogonalEdgeStyle;rounded=0;orthogonalLoop=1;jettySize=auto;html=1;entryX=1;entryY=0.5;entryDx=0;entryDy=0;" parent="1" source="-ynzkJXffnAPv18Onzld-26" target="PYfjQ83cFtxB1XMa9_4I-9" edge="1">
          <mxGeometry relative="1" as="geometry">
            <Array as="points">
              <mxPoint x="-2910" y="605" />
            </Array>
          </mxGeometry>
        </mxCell>
        <mxCell id="-ynzkJXffnAPv18Onzld-26" value="已修復不完整資料" style="rounded=1;whiteSpace=wrap;html=1;" parent="1" vertex="1">
          <mxGeometry x="-2970" y="540" width="120" height="31" as="geometry" />
        </mxCell>
      </root>
    </mxGraphModel>
  </diagram>
  <diagram id="ljTwJ3seBjIwUGyMjvNn" name="爬蟲程式執行">
    <mxGraphModel dx="4742" dy="836" grid="1" gridSize="10" guides="1" tooltips="1" connect="1" arrows="1" fold="1" page="1" pageScale="1" pageWidth="827" pageHeight="1169" math="0" shadow="0">
      <root>
        <mxCell id="0" />
        <mxCell id="1" parent="0" />
        <mxCell id="_DuoZKou3X5Iuj5zYVKM-1" value="設定爬蟲參數" style="rounded=1;whiteSpace=wrap;html=1;" parent="1" vertex="1">
          <mxGeometry x="-3240" y="119.5" width="120" height="31" as="geometry" />
        </mxCell>
        <mxCell id="_DuoZKou3X5Iuj5zYVKM-2" style="edgeStyle=orthogonalEdgeStyle;rounded=0;orthogonalLoop=1;jettySize=auto;html=1;exitX=0.5;exitY=1;exitDx=0;exitDy=0;" parent="1" source="_DuoZKou3X5Iuj5zYVKM-3" target="_DuoZKou3X5Iuj5zYVKM-1" edge="1">
          <mxGeometry relative="1" as="geometry" />
        </mxCell>
        <mxCell id="_DuoZKou3X5Iuj5zYVKM-3" value="" style="ellipse;whiteSpace=wrap;html=1;aspect=fixed;fillColor=#000000;" parent="1" vertex="1">
          <mxGeometry x="-3190" y="80" width="20" height="20" as="geometry" />
        </mxCell>
        <mxCell id="_DuoZKou3X5Iuj5zYVKM-4" style="edgeStyle=orthogonalEdgeStyle;rounded=0;orthogonalLoop=1;jettySize=auto;html=1;entryX=0.5;entryY=0;entryDx=0;entryDy=0;" parent="1" source="_DuoZKou3X5Iuj5zYVKM-5" edge="1">
          <mxGeometry relative="1" as="geometry">
            <mxPoint x="-3180" y="240" as="targetPoint" />
          </mxGeometry>
        </mxCell>
        <mxCell id="_DuoZKou3X5Iuj5zYVKM-5" value="初始化爬蟲" style="rounded=1;whiteSpace=wrap;html=1;" parent="1" vertex="1">
          <mxGeometry x="-3240" y="180" width="120" height="31" as="geometry" />
        </mxCell>
        <mxCell id="_DuoZKou3X5Iuj5zYVKM-6" value="" style="edgeStyle=orthogonalEdgeStyle;rounded=0;orthogonalLoop=1;jettySize=auto;html=1;exitX=0.5;exitY=1;exitDx=0;exitDy=0;entryX=0.5;entryY=0;entryDx=0;entryDy=0;" parent="1" source="_DuoZKou3X5Iuj5zYVKM-1" edge="1">
          <mxGeometry relative="1" as="geometry">
            <mxPoint x="-3180" y="150" as="sourcePoint" />
            <mxPoint x="-3180" y="180.5" as="targetPoint" />
          </mxGeometry>
        </mxCell>
        <mxCell id="_DuoZKou3X5Iuj5zYVKM-7" value="" style="ellipse;html=1;shape=endState;fillColor=#000000;strokeColor=#000000;" parent="1" vertex="1">
          <mxGeometry x="-3195" y="610" width="30" height="30" as="geometry" />
        </mxCell>
        <mxCell id="_DuoZKou3X5Iuj5zYVKM-8" style="edgeStyle=orthogonalEdgeStyle;rounded=0;orthogonalLoop=1;jettySize=auto;html=1;entryX=0.5;entryY=0;entryDx=0;entryDy=0;" parent="1" source="_DuoZKou3X5Iuj5zYVKM-9" target="_DuoZKou3X5Iuj5zYVKM-11" edge="1">
          <mxGeometry relative="1" as="geometry" />
        </mxCell>
        <mxCell id="_DuoZKou3X5Iuj5zYVKM-9" value="執行爬蟲主程式" style="rounded=1;whiteSpace=wrap;html=1;" parent="1" vertex="1">
          <mxGeometry x="-3240" y="240" width="120" height="31" as="geometry" />
        </mxCell>
        <mxCell id="_DuoZKou3X5Iuj5zYVKM-10" style="edgeStyle=orthogonalEdgeStyle;rounded=0;orthogonalLoop=1;jettySize=auto;html=1;entryX=0.5;entryY=0;entryDx=0;entryDy=0;" parent="1" source="_DuoZKou3X5Iuj5zYVKM-11" target="_DuoZKou3X5Iuj5zYVKM-12" edge="1">
          <mxGeometry relative="1" as="geometry" />
        </mxCell>
        <mxCell id="_DuoZKou3X5Iuj5zYVKM-11" value="抓取地圖資料" style="rounded=1;whiteSpace=wrap;html=1;" parent="1" vertex="1">
          <mxGeometry x="-3240" y="300" width="120" height="31" as="geometry" />
        </mxCell>
        <mxCell id="_DuoZKou3X5Iuj5zYVKM-12" value="檢查資料完整性" style="rounded=1;whiteSpace=wrap;html=1;" parent="1" vertex="1">
          <mxGeometry x="-3240" y="357.5" width="120" height="31" as="geometry" />
        </mxCell>
        <mxCell id="tjK6leld29WbBDJsZT-V-1" style="edgeStyle=orthogonalEdgeStyle;rounded=0;orthogonalLoop=1;jettySize=auto;html=1;entryX=1;entryY=0.5;entryDx=0;entryDy=0;" parent="1" source="_DuoZKou3X5Iuj5zYVKM-15" target="_DuoZKou3X5Iuj5zYVKM-9" edge="1">
          <mxGeometry relative="1" as="geometry">
            <Array as="points">
              <mxPoint x="-3010" y="256" />
            </Array>
          </mxGeometry>
        </mxCell>
        <mxCell id="_DuoZKou3X5Iuj5zYVKM-15" value="重新執行爬蟲程式" style="rounded=1;whiteSpace=wrap;html=1;" parent="1" vertex="1">
          <mxGeometry x="-3070" y="404" width="120" height="31" as="geometry" />
        </mxCell>
        <mxCell id="_DuoZKou3X5Iuj5zYVKM-18" style="edgeStyle=orthogonalEdgeStyle;rounded=0;orthogonalLoop=1;jettySize=auto;html=1;entryX=0.5;entryY=0;entryDx=0;entryDy=0;" parent="1" target="_DuoZKou3X5Iuj5zYVKM-23" edge="1">
          <mxGeometry relative="1" as="geometry">
            <mxPoint x="-3180" y="388.5" as="sourcePoint" />
          </mxGeometry>
        </mxCell>
        <mxCell id="_DuoZKou3X5Iuj5zYVKM-19" style="edgeStyle=orthogonalEdgeStyle;rounded=0;orthogonalLoop=1;jettySize=auto;html=1;entryX=0.5;entryY=0;entryDx=0;entryDy=0;" parent="1" source="_DuoZKou3X5Iuj5zYVKM-23" target="_DuoZKou3X5Iuj5zYVKM-25" edge="1">
          <mxGeometry relative="1" as="geometry">
            <mxPoint x="-3180" y="477.5" as="targetPoint" />
          </mxGeometry>
        </mxCell>
        <mxCell id="_DuoZKou3X5Iuj5zYVKM-20" value="[完整]" style="edgeLabel;html=1;align=center;verticalAlign=middle;resizable=0;points=[];" parent="_DuoZKou3X5Iuj5zYVKM-19" vertex="1" connectable="0">
          <mxGeometry x="-0.3925" y="1" relative="1" as="geometry">
            <mxPoint x="-1" y="4" as="offset" />
          </mxGeometry>
        </mxCell>
        <mxCell id="_DuoZKou3X5Iuj5zYVKM-21" style="edgeStyle=orthogonalEdgeStyle;rounded=0;orthogonalLoop=1;jettySize=auto;html=1;" parent="1" source="_DuoZKou3X5Iuj5zYVKM-23" edge="1">
          <mxGeometry relative="1" as="geometry">
            <mxPoint x="-3070" y="420" as="targetPoint" />
          </mxGeometry>
        </mxCell>
        <mxCell id="_DuoZKou3X5Iuj5zYVKM-22" value="[不完整]" style="edgeLabel;html=1;align=center;verticalAlign=middle;resizable=0;points=[];" parent="_DuoZKou3X5Iuj5zYVKM-21" vertex="1" connectable="0">
          <mxGeometry x="-0.2047" y="-1" relative="1" as="geometry">
            <mxPoint x="1" y="-1" as="offset" />
          </mxGeometry>
        </mxCell>
        <mxCell id="_DuoZKou3X5Iuj5zYVKM-23" value="" style="rhombus;whiteSpace=wrap;html=1;" parent="1" vertex="1">
          <mxGeometry x="-3195" y="410.5" width="30" height="18" as="geometry" />
        </mxCell>
        <mxCell id="_DuoZKou3X5Iuj5zYVKM-24" style="edgeStyle=orthogonalEdgeStyle;rounded=0;orthogonalLoop=1;jettySize=auto;html=1;entryX=0.5;entryY=0;entryDx=0;entryDy=0;" parent="1" source="_DuoZKou3X5Iuj5zYVKM-25" target="tjK6leld29WbBDJsZT-V-2" edge="1">
          <mxGeometry relative="1" as="geometry" />
        </mxCell>
        <mxCell id="_DuoZKou3X5Iuj5zYVKM-25" value="處理和儲存資料" style="rounded=1;whiteSpace=wrap;html=1;" parent="1" vertex="1">
          <mxGeometry x="-3240" y="478" width="120" height="31" as="geometry" />
        </mxCell>
        <mxCell id="tjK6leld29WbBDJsZT-V-3" style="edgeStyle=orthogonalEdgeStyle;rounded=0;orthogonalLoop=1;jettySize=auto;html=1;entryX=0.5;entryY=0;entryDx=0;entryDy=0;" parent="1" source="tjK6leld29WbBDJsZT-V-2" target="_DuoZKou3X5Iuj5zYVKM-7" edge="1">
          <mxGeometry relative="1" as="geometry" />
        </mxCell>
        <mxCell id="tjK6leld29WbBDJsZT-V-2" value="完成爬蟲作業" style="rounded=1;whiteSpace=wrap;html=1;" parent="1" vertex="1">
          <mxGeometry x="-3240" y="540" width="120" height="31" as="geometry" />
        </mxCell>
      </root>
    </mxGraphModel>
  </diagram>
</mxfile>
